<svg width="617" height="824" viewBox="0 0 617 824" fill="none" xmlns="http://www.w3.org/2000/svg">
<path d="M356.057 34.1998C356.109 34.1729 356.162 34.1425 356.214 34.1082C356.359 34.1656 356.56 34.2517 356.814 34.3659C357.42 34.6387 358.295 35.0555 359.357 35.5758C361.479 36.6155 364.336 38.0604 367.267 39.5725C370.198 41.0845 373.201 42.6622 375.616 43.9675C378.05 45.2826 379.844 46.299 380.394 46.6991C381.521 47.5189 385.216 50.6407 387.371 55.5213C389.511 60.3682 390.152 66.9865 385.149 74.9065C382.848 78.5497 381.321 80.8731 380.354 82.2559L380.255 82.397L380.264 82.5689L382.501 124.858C379.669 125.297 375.556 126.324 371.858 128.078C367.981 129.918 364.423 132.622 363.429 136.414C362.646 139.404 362.066 141.204 361.653 142.234V118.279V110.21V109.71H361.153H356.556V83.2425V83.0043L356.371 82.8542L322.609 55.4619L322.578 55.437L322.544 55.4173C316.37 51.8487 305.814 47.5756 294.164 46.3284C282.584 45.0888 269.872 46.835 259.328 55.2978C242.815 50.5753 229.984 50.9466 219.978 54.7727C209.917 58.6195 202.777 65.9337 197.639 74.9254C193.513 82.1443 192.279 88.9122 191.888 94.3708C191.731 96.5716 191.71 98.5657 191.692 100.278C191.688 100.685 191.684 101.076 191.678 101.449C191.648 103.416 191.571 104.851 191.242 105.765L187.858 112.535L187.823 112.605L187.811 112.682L183.629 139.863H181.3L179.243 126.907L179.202 126.65L178.969 126.536L169.23 121.771L166.292 99.1037L166.288 99.076L166.282 99.049C165.437 95.6013 164.327 89.8599 163.745 83.863C163.162 77.8508 163.118 71.6475 164.365 67.2405C165.621 62.8045 169.219 55.6873 173.239 48.5524C177.236 41.4589 181.62 34.4006 184.447 30.051C188.887 25.6893 196.851 19.1228 206.341 13.5801C215.865 8.01722 226.873 3.51631 237.368 3.26443L237.39 3.26391L237.412 3.26147C250.664 1.77756 266.996 0.92887 280.039 0.875705C286.563 0.849117 292.25 1.0216 296.314 1.41077C298.349 1.60572 299.955 1.85309 301.048 2.14962C301.598 2.29879 301.987 2.45243 302.232 2.59996C302.426 2.71755 302.466 2.79103 302.472 2.80459C302.507 3.32319 302.805 3.75271 303.195 4.09685C303.588 4.44387 304.12 4.74712 304.732 5.01614C305.959 5.55531 307.613 6.00297 309.41 6.37069C312.965 7.09797 317.182 7.53326 320.026 7.71532C324.971 10.4748 332.352 14.8744 338.55 19.176C341.671 21.3423 344.48 23.4747 346.524 25.3539C347.546 26.2941 348.365 27.1598 348.935 27.9252C349.516 28.7045 349.792 29.3202 349.824 29.7684C349.936 31.3289 350.372 32.4464 351.014 33.2173C351.658 33.9913 352.472 34.3725 353.255 34.523C354.03 34.6721 354.782 34.5972 355.342 34.4572C355.621 34.3874 355.868 34.2974 356.057 34.1998Z" fill="black" stroke="#111111"/>
<path d="M192.469 102.299C192.504 103.005 190.287 107.887 189.174 110.24H195.651L200.05 104.858L228.733 104.268L249.223 107.798L256.786 111.932L264.486 113.037L272.382 114.234L280.404 113.037L287.161 111.189L295.744 113.037L305.623 114.234L321.47 113.037L328.365 107.231H342.176L352.311 114.934H354.813H361.097V109.086L355.851 108.987V108.861L356.017 82.1228L350.22 77.2646L329.794 60.6105L319.452 52.9551C316.292 51.5811 308.941 48.5076 304.809 47.2058C301.841 45.5664 280.333 46.4067 274.902 46.4069C271.06 46.4071 262.784 50.957 259.063 53.8074C258.073 53.512 255.851 54.3735 254.078 53.8074C227.938 47.4273 215.62 53.896 213.449 56.9968C209.506 58.4589 198.74 70.1115 198.164 73.7011C195.55 76.7583 194.585 82.8568 193.439 86.6922C192.293 90.5276 192.425 101.417 192.469 102.299Z" fill="#FAA5A5"/>
<path d="M183.986 138.818L188.642 110.321L200.433 104.589L202.838 104.326L254.235 105.186L199.718 108.193L198.189 109.41L196.992 110.456L192.749 114.705L192.426 117.427L190.949 124.302L193.294 132.342L197.732 140.043L212.351 145.525L236.39 147.941L226.206 156.639L222.175 165.126V173.824L223.448 186.13L233.844 190.585L253.787 201.617L273.517 202.678L294.521 200.132L310.221 186.13L316.374 190.585V200.132L324.436 186.13L326.981 177.431L324.436 171.915L299.613 147.941H318.495L335.892 145.183L345.928 139.704L350.87 131.399L351.968 124.947L352.865 116.985H361.303V118.975C361.118 125.725 361.597 136.313 361.82 140.992C362.158 135.546 367.864 129.037 369.262 127.241L375.693 123.769H382.921L387.447 124.947L390.841 134.151L392.114 153.245L387.447 175.097L378.112 188.039L356.896 192.919L345.919 207.713L322.282 219.613L289.517 231.839L276.475 234.121H263.108L236.39 224.504L207.195 211.952L188.865 189.312L180.804 188.039L163.831 166.611L159.375 151.548L160.861 129.271L168.711 121.633L177.621 125.24L180.804 138.818H183.986Z" fill="#FAA5A5"/>
<path d="M213.172 57.1977C209.236 58.5289 198.236 74.3976 195.078 78.8586C197.614 78.5784 208.153 70.1704 213.172 67.3666C219.594 63.7786 231.701 58.74 238.144 57.1977C243.124 58.3605 250.766 58.0078 259.139 56.6839C269.606 55.0291 274.303 54.3724 282.91 51.7247C291.518 49.0769 310.584 55.6255 316.824 58.364C321.816 60.5548 344.818 76.1091 354.633 84.4902L356.02 86.4784L356.164 83.7124L355.116 81.9798C352.551 79.7885 344.645 73.0805 333.546 63.7786C322.448 54.4766 322.767 53.7 321.554 53.5579C318.664 52.307 307.204 47.9721 306.567 47.9721C306.311 47.3182 290.808 44.6342 290.229 44.5619C289.65 44.4895 276.323 45.6243 273.791 46.7809C271.592 46.2601 262.892 51.1559 258.817 53.736C258.431 53.9048 257.429 53.87 256.181 53.87C254.733 53.87 245.565 51.841 235.727 50.8283C225.889 49.8156 216.211 53.653 213.172 57.1977Z" fill="#E37474"/>
<path d="M203.494 100.576L199.842 103.517L205.218 105.039L218.302 105.546L229.662 105.039C233.009 105.208 241.326 105.729 247.818 106.459C254.309 107.189 256.135 108.521 256.236 109.096V107.575C256.101 106.899 255.303 105.14 253.193 103.517C251.084 101.894 248.122 101.624 246.905 101.692L242.239 100.576L232.603 98.7501L225.402 97.7363H216.578H211.405L207.652 98.7501L203.494 100.576Z" fill="#473939"/>
<path d="M294.59 104.7L287.635 110.145L287.689 110.955L294.921 109.659L297.957 107.932L306.822 106.731L315.728 106.137L325.039 105.516L334.188 105.515L341.029 104.449L338.668 102.573L324.688 100.253L315.323 100.064L298.274 102.015L294.59 104.7Z" fill="#473939"/>
<path opacity="0.5" d="M196.952 111.709L200.137 109.155L212.234 107.003H227.122L239.471 107.002L251.974 109.161L258.303 113.709L262.605 118.29L263.498 122.134L262.58 126.086L254.695 139.133L243.402 146.945H227.207L209.35 143.889L198.574 139.042L194.509 132.784L192.259 124.418L193.84 115.194L196.952 111.709Z" stroke="black" strokeWidth="2"/>
<path opacity="0.5" d="M347.108 111.713L343.923 109.158L331.826 107.006H316.938L304.589 107.006L292.085 109.165L285.756 113.712L281.453 118.293L280.561 122.137L281.478 126.088L289.364 139.134L300.657 146.946H316.853L334.71 143.89L345.486 139.043L349.551 132.786L351.801 124.42L350.22 115.197L347.108 111.713Z" stroke="black" strokeWidth="2"/>
<path d="M266.21 119.557L264.53 122.424L262.997 117.701L259.979 114.017L256.383 111.156C259.514 111.288 269.518 116.131 280.65 113.028C289.676 110.513 292.143 107.152 284.112 114.017L280.869 117.521L279.76 122.424L278.475 119.557H266.21Z" fill="black"/>
<path d="M207.542 280.541V214.868C227.013 228.455 265.853 238 274.753 237.819C283.654 237.638 332.94 224.607 348.237 211.473V264.01L377.906 287.335C380.533 298.129 382.31 319.265 357.509 335.117C335.489 363.198 281.02 360.707 258.073 359.121C234.257 357.476 210.324 343.949 199.198 325.606C190.298 310.931 196.185 294.657 199.198 290.279L207.542 280.541Z" fill="#FAA5A5"/>
<path d="M174.882 142.844L173.482 145.846L172.982 147.648L168.978 148.248L166.877 151.751V156.554L168.978 158.756L170.579 163.56H175.783V160.357L173.482 158.756L172.581 156.554V151.751L174.882 148.849L178.786 147.648L182.188 146.747V145.146V142.145L177.685 142.844H174.882Z" fill="#DA4949"/>
<path d="M365.352 157.11V154.217L366.59 150.497L373.615 149.465L378.367 154.217L379.194 160.828L376.714 165.787L373.615 167.233L371.549 171.985H366.59V168.473L370.516 164.341V157.11H365.352Z" fill="#DA4949"/>
<path d="M251.404 200.359L223.908 186.246L237.874 185.373L269.615 188.509L301.305 185.373L311.489 186.246L303.051 195.412L294.467 200.359L275.264 202.832H260.424L251.404 200.359Z" fill="#F1D0D0"/>
<path d="M223.145 186.453L236.881 184.793L235.221 179.811H307.826L305.109 184.793L311.6 186.453L314.921 188.414L313.94 174.967L229.937 176.942L223.145 179.811V186.453Z" fill="#3F3B3B"/>
<path d="M235.231 179.635H307.242V184.168L268.739 188.886L254.088 188.072L235.23 185.019L235.231 179.635Z" fill="white"/>
<path d="M226.773 156.564L236.88 147.896C245.002 149.857 241.19 151.193 236.88 153.926C233.712 155.936 229.562 161.272 228.788 162.711L226.773 177.457L222.516 179.264V164.899L226.773 156.564Z" fill="#DA4949"/>
<path d="M260.404 203.336L251.885 200.422L264.888 207.932L281.254 207.148L292.463 200.422L288.092 201.431L279.348 203.336H260.404Z" fill="#DA4949"/>
<path d="M255.617 139.75L265.643 119.869L278.482 119.869L288.593 139.75L299.194 153.738L297.26 158.388H291.803L286.667 154.244L283.801 153.738L280.569 154.244L278.112 155.464L276.717 157.518V162.194H259.433V157.518L253.855 155.235L251.609 156.218L248.21 156.643L243.458 157.805L241.406 157.056L240.605 154.244L239.678 151.763L240.033 150.461L241.406 149.08L255.617 139.75Z" fill="#FAA5A5"/>
<path d="M256.199 155.47L249.382 154.476L246.311 155.616L243.241 156.756L241.856 155.986L238.984 151.574L228.16 162.337L226.277 176.672L255.159 173.972L256.199 169.805L272.196 168.548V162.337L259.851 161.314L258.783 157.096L256.199 155.47Z" fill="#FD8C8C"/>
<path d="M255.366 168.263L254.643 173.606H309.033L310.956 175.636L312.345 168.263L298.989 154.373L296.245 158.341L290.588 157.344L287.021 154.373L283.586 153.52L280.289 154.373L278.114 155.304L276.746 157.344L276.005 161.645L272.061 162.492V168.263H255.366Z" fill="#FD8C8C"/>
<path d="M284.234 156.997C281.413 156.398 279.069 157.246 278.25 157.745L278.785 160.309C279.391 160.38 281.179 160.736 283.487 161.591C285.795 162.446 290.432 161.947 292.462 161.591L290.753 159.347C289.755 158.813 287.056 157.595 284.234 156.997Z" fill="#D62D2D"/>
<path d="M253.615 155.551C256.306 155.772 258.138 157.239 258.717 157.945L257.469 160.239C256.909 160.137 255.21 159.975 252.898 160.142C250.587 160.309 246.609 158.531 244.909 157.621L247.106 155.961C248.154 155.732 250.924 155.329 253.615 155.551Z" fill="#D62D2D"/>
<path d="M310.926 176.193L312.445 168.196L299.408 155.078L288.689 139.641L312.778 165.759L325.911 180.344L324.603 185.791L322.203 190.67L316.323 200.45V190.67L313.565 188.828V178.033L310.926 176.193Z" fill="#EBB0B0"/>
<path d="M327.003 177.552L326.11 180.901L323.32 189.079L316.586 199.566L321.973 188.502L324.644 179.286L289.17 140.199L299.089 147.399L324.203 171.474L327.003 177.552Z" fill="#DA4949"/>
<path d="M221.816 165.028L222.914 178.88L223.868 165.028L227.898 156.454L240.137 148.611L238.891 148.025H236.692L226.066 156.454L221.816 165.028Z" fill="#C41F1F"/>
<path d="M262.926 229.587L264.508 233.981H282.439L283.494 229.587V225.719L275.056 222.203L266.09 223.786L262.926 229.587Z" fill="#F77A7A"/>
<path d="M327.278 177.398L324.293 172.174L325.951 177.398L323.795 185.941L324.79 184.365L327.278 177.398Z" fill="#873535"/>
<path d="M226.894 176.487L222.41 179.985L230.764 177.843H246.421H271.639L296.857 178.791H314.156L311.747 175.319L303.162 172.171L291.492 171.412L281.431 172.171L271.639 174.342L264.932 172.171L252.457 171.412L240.519 172.171L230.764 173.448L226.894 176.487Z" fill="#F1D0D0"/>
<path d="M317.51 146.322L300.964 145.972L290.166 138.472L285.255 130.606L282.068 124.118L281.592 122.104L282.542 118.839L284.992 116.046L291.27 111.112L297.214 108.757L306.537 108.195H316.277L330.699 108.423L342.068 109.877L343.54 110.151L346.295 112.241L349.216 115.637L350.815 124.118L349.58 128.578L348.603 132.34L344.84 138.204L334.531 142.87L317.51 146.322Z" fill="#FAA5A5"/>
<path d="M306.09 122.452C310.85 121.31 315.055 121.103 316.563 121.141L309.065 119.596L297.879 121.141L292.999 123.403L289.311 127.568L291.214 130.424L302.997 138.874L330.606 138.041L333.083 136.443L328.532 135.305L313.112 130.424L300.617 129.472L296.332 127.568L298.672 125.069C299.188 124.831 301.33 123.594 306.09 122.452Z" fill="#DA4949"/>
<path d="M330.558 123.052L338.713 128.155L327.028 129.67L316.108 130.332L305.078 129.67L295.129 128.155L299.783 124.486L306.732 122.39L313.571 121.475L320.19 120.516L330.558 123.052Z" fill="#D9D9D9"/>
<path d="M322.602 126.69C322.602 128.729 320.27 130.383 317.394 130.383C314.517 130.383 312.186 128.729 312.186 126.69C312.186 124.65 314.754 120.938 317.63 120.938C320.507 120.938 322.602 124.65 322.602 126.69Z" fill="#222121"/>
<path d="M169.333 160.186C168.82 157.498 167.553 157.183 166.754 156.543L171.183 159.065L176.035 163.606H173.955C172.782 163.606 169.846 162.875 169.333 160.186Z" fill="#852A2A"/>
<path d="M321.713 122.767L305.438 121.788L309.741 119.785H321.245L329.511 122.043L338.713 127.88L332.578 125.751L321.713 122.767Z" fill="#DA5B5B"/>
<path d="M308.309 130.747L296.434 128.944L295.066 128.571L305.822 134.602L326.587 136.654L334.364 133.528L337.831 130.64L338.648 128.226L323.975 130.312L308.309 130.747Z" fill="#F28D8D"/>
<path d="M200.294 109.992L194.754 115.482L193.072 124.286L195.15 132.199L199.304 138.035L209.492 142.932L223.856 145.931H243.352L248.713 141.992L254.153 138.233L261.356 126.786L262.512 122.11L261.77 118.647L257.22 114.097L251.235 109.992L239.613 107.865H211.917L200.294 109.992Z" fill="#FAA5A5"/>
<path d="M260.313 202.747L252.062 200.525L261.018 204.404L279.739 204.58L286.015 203.487L291.938 200.525L278.435 202.394L260.313 202.747Z" fill="#922B2B"/>
<path d="M222.998 125.299L203.16 124.615L209.61 121.879H240.296L241.566 124.615L242.055 127.254L222.998 125.299Z" fill="#D9D9D9"/>
<path d="M232.232 124.906C232.232 126.946 229.901 128.6 227.024 128.6C224.148 128.6 221.816 126.946 221.816 124.906C221.816 122.867 224.385 119.154 227.261 119.154C230.137 119.154 232.232 122.867 232.232 124.906Z" fill="#222121"/>
<path d="M222.365 125.431L202.475 124.908L215.189 132.878H224.802L242.055 130.088V127.351L222.365 125.431Z" fill="#F28D8D"/>
<path d="M241.846 130.127L213.008 133.648H248.344L252.405 126.743L246.854 120.379L236.429 117.672L208.675 119.295L198.656 123.221L202.717 124.576L209.623 121.733H240.356L241.846 124.576V130.127Z" fill="#DA5B5B"/>
<path d="M278.785 358.563C197.626 358.563 190.335 299.933 205.573 282.41L157.573 306.791L98.1469 318.981L46.3373 351.742L23.4806 451.55L0.625 558.214L98.1469 578.023L121.004 613.832L105.766 661.069L85.9562 754.782L80.5103 792.36V822.513H137.467H188.845H290.349H325.436H359.27H379.32L465.377 812.816H487.664L502.71 759.353L480.615 688.497V553.643L506.519 586.404L616.993 549.833L530.9 360.123L465.377 313.647C424.489 297.393 348.351 268.391 370.903 282.41C399.093 299.933 358.836 358.563 278.785 358.563Z" fill="#142845"/>
<path d="M361.263 158.209V141.924V127.029L358.284 172.507L351.34 197.546L334.812 210.987L343.281 205.616L353.331 200.035L358.284 190.578L361.263 170.719V158.209Z" fill="#E18C8C"/>
<path d="M183.246 161.701V138.379L186.137 125.85V160.158L194.232 188.877L206.953 212.007L190.763 190.612L183.246 161.701Z" fill="#FF9494"/>
<path d="M237.33 185.519L224.432 186.075L250.008 197.418L271.914 200.531L293.265 197.418L303.162 190.746L311.168 186.298L304.051 184.74L268.689 188.632L237.33 185.519Z" fill="#EEBDBD"/>
<path d="M237.361 185.513L224.732 186.202H237.361L250.334 187.349L268.932 189.568L295.911 186.698L304.024 185.474L310.453 186.201L304.216 184.709L295.911 185.819L268.932 188.651L250.334 186.699L237.361 185.513Z" fill="#9A4F4F"/>
<path d="M261.451 233.429L204.699 210.651L208.124 215.79L222.327 223.842L249.533 233.429L262.136 236.85L275.444 237.834L293.274 234.963L309.646 229.802L330.568 222.069L342.443 217.074L348.252 210.887L356.803 191.453L352.398 200.263L317.846 221.127L284.074 232.604L261.451 233.429Z" fill="#F09B9B"/>
<path d="M351.306 122.555C349.416 133.937 344.993 139.531 338.961 142.515C332.735 145.594 324.59 146.027 314.828 146.425C313.27 146.425 311.819 146.449 310.449 146.471C307.969 146.512 305.757 146.548 303.67 146.432C300.489 146.256 297.847 145.729 295.445 144.4C290.656 141.749 286.335 135.634 281.284 120.961C281.405 116.352 284.98 112.807 291.587 110.347C298.253 107.866 307.482 106.725 317.513 106.725C327.7 106.725 336.946 106.888 343.305 109.061C346.445 110.134 348.705 111.643 350.052 113.707C351.386 115.751 351.969 118.564 351.306 122.555Z" stroke="#0C0343" strokeWidth="3"/>
<path d="M192.916 123.334C194.806 134.718 199.23 140.313 205.262 143.296C211.487 146.376 219.632 146.809 229.395 147.207C230.952 147.207 232.404 147.231 233.773 147.253C236.254 147.294 238.466 147.33 240.552 147.214C243.733 147.038 246.375 146.511 248.777 145.182C253.567 142.531 257.887 136.415 262.938 121.74C262.818 117.13 259.243 113.585 252.635 111.125C245.97 108.644 236.74 107.502 226.71 107.502C216.523 107.502 207.276 107.665 200.917 109.839C197.777 110.912 195.517 112.42 194.17 114.485C192.836 116.529 192.253 119.342 192.916 123.334Z" stroke="#0C0343" strokeWidth="3"/>
<path d="M361.371 117.053H352.998L352.242 114.721L361.371 115.132V117.053Z" fill="#1B1B1B"/>
<path d="M230.972 173.59L226.182 176.676L232.596 171.064L252.23 169.334L265.213 170.295L270.984 172.989L283.871 170.295H302.529L311.276 175.052L301.952 171.738H283.871L270.984 174.238L264.263 171.738L252.23 171.064L230.972 173.59Z" fill="#D07B7B"/>
<path d="M348.859 146.945C342.562 153.428 328.022 152.27 316.447 152.27L331.958 168.012L328.022 189.079L313.207 212.693L335.052 201.994L348.859 183.291C351.637 175.497 355.526 157.316 348.859 146.945Z" fill="#F3A1A1"/>
<path d="M525.993 648.687L506.729 585.624L584.038 560.943V564.992L596.188 655.437V686.485L548.941 815.402L487.582 812.339L525.993 648.687Z" fill="#FAA5A5"/>
<path d="M34.377 633.737L38.216 564.719L95.1719 575.501L108.944 594.66C109.584 609.592 107.843 648.072 102.211 677.254C96.5798 706.436 95.1719 715.438 95.1719 716.291L88.0629 757.766L81.7593 823.803H38.216L34.377 633.737Z" fill="#FAA5A5"/>
<path d="M204.067 282.724C204.111 282.641 204.155 282.559 204.198 282.479C204.16 282.564 204.116 282.645 204.067 282.724C199.57 291.238 194.01 312.184 206.853 329.932C219.821 347.853 240.944 355.281 249.884 356.754L287.022 358.817C298.124 357.344 321.448 353.748 325.928 351.154C330.408 348.56 344.497 342.41 350.982 339.659L373.087 319.616C378.786 310.971 388.709 289.847 368.077 279.531C389.298 284.247 394.826 297.085 395.022 303.275C394.924 317.324 387.933 356.441 337.945 371.768C287.956 387.095 248.453 376.877 233.127 371.768C206.854 367.798 170.053 329.546 177.834 306.202C185.465 283.309 201.575 286.728 204.067 282.724Z" fill="#0C0533"/>
<path d="M313.332 178.906L311.918 174.164L314.498 181.902V186.396L313.332 190.806V188.31V178.906Z" fill="#3F3B3B"/>
<g filter="url(#filter0_i_632_60)">
<path d="M235.23 179.635H241.646V185.895L238.354 185.578L237.263 185.487L235.304 185.578L235.23 179.635Z" fill="white"/>
</g>
<g filter="url(#filter1_i_632_60)">
<path d="M241.646 179.635H248.062V186.512L244.715 186.176L241.646 185.911V179.635Z" fill="white"/>
</g>
<g filter="url(#filter2_i_632_60)">
<path d="M248.063 179.635H254.479V187.143L251.036 186.783L248.062 186.469L248.063 179.635Z" fill="white"/>
</g>
<g filter="url(#filter3_i_632_60)">
<path d="M254.479 179.635H260.961V187.803L254.479 187.139V179.635Z" fill="white"/>
</g>
<g filter="url(#filter4_i_632_60)">
<path d="M260.754 179.535L267.785 179.659V188.519L260.754 187.745V179.535Z" fill="white"/>
</g>
<g filter="url(#filter5_i_632_60)">
<path d="M267.801 179.635H275.527V187.955L271.506 188.469L268.949 188.643L267.801 188.538V179.635Z" fill="white"/>
</g>
<g filter="url(#filter6_i_632_60)">
<path d="M275.527 179.635H281.943V187.299L275.527 187.964V179.635Z" fill="white"/>
</g>
<g filter="url(#filter7_i_632_60)">
<path d="M281.943 179.635H288.359V186.605L281.943 187.291V179.635Z" fill="white"/>
</g>
<g filter="url(#filter8_i_632_60)">
<path d="M288.359 179.635H294.775V185.967L288.359 186.609V179.635Z" fill="white"/>
</g>
<g filter="url(#filter9_i_632_60)">
<path d="M294.775 179.705H301.191V185.121L294.775 185.918V179.705Z" fill="white"/>
</g>
<g filter="url(#filter10_i_632_60)">
<path d="M301.191 179.635H307.607V184.416L301.191 185.119V179.635Z" fill="white"/>
</g>
<path d="M186.852 119.886H191.954V117.809H184.963L175.896 124.042L178.919 125.554L186.852 119.886Z" fill="#221B1B"/>
<path d="M220.883 157.584C210.411 158.012 197.64 149.034 192.564 144.492C192.564 174.627 215.361 194.272 226.76 200.328C220.615 193.649 210.838 175.75 220.883 157.584Z" fill="#D9D9D9" fillOpacity="0.26"/>
<defs>
<filter id="filter0_i_632_60" x="235.23" y="178.635" width="6.41602" height="7.25977" filterUnits="userSpaceOnUse" color-interpolation-filters="sRGB">
<feFlood flood-opacity="0" result="BackgroundImageFix"/>
<feBlend mode="normal" in="SourceGraphic" in2="BackgroundImageFix" result="shape"/>
<feColorMatrix in="SourceAlpha" type="matrix" values="0 0 0 0 0 0 0 0 0 0 0 0 0 0 0 0 0 0 127 0" result="hardAlpha"/>
<feOffset dy="-1"/>
<feGaussianBlur stdDeviation="0.5"/>
<feComposite in2="hardAlpha" operator="arithmetic" k2="-1" k3="1"/>
<feColorMatrix type="matrix" values="0 0 0 0 0 0 0 0 0 0 0 0 0 0 0 0 0 0 0.25 0"/>
<feBlend mode="normal" in2="shape" result="effect1_innerShadow_632_60"/>
</filter>
<filter id="filter1_i_632_60" x="241.646" y="178.635" width="6.41602" height="7.87695" filterUnits="userSpaceOnUse" color-interpolation-filters="sRGB">
<feFlood flood-opacity="0" result="BackgroundImageFix"/>
<feBlend mode="normal" in="SourceGraphic" in2="BackgroundImageFix" result="shape"/>
<feColorMatrix in="SourceAlpha" type="matrix" values="0 0 0 0 0 0 0 0 0 0 0 0 0 0 0 0 0 0 127 0" result="hardAlpha"/>
<feOffset dy="-1"/>
<feGaussianBlur stdDeviation="0.5"/>
<feComposite in2="hardAlpha" operator="arithmetic" k2="-1" k3="1"/>
<feColorMatrix type="matrix" values="0 0 0 0 0 0 0 0 0 0 0 0 0 0 0 0 0 0 0.25 0"/>
<feBlend mode="normal" in2="shape" result="effect1_innerShadow_632_60"/>
</filter>
<filter id="filter2_i_632_60" x="248.062" y="178.635" width="6.41602" height="8.50781" filterUnits="userSpaceOnUse" color-interpolation-filters="sRGB">
<feFlood flood-opacity="0" result="BackgroundImageFix"/>
<feBlend mode="normal" in="SourceGraphic" in2="BackgroundImageFix" result="shape"/>
<feColorMatrix in="SourceAlpha" type="matrix" values="0 0 0 0 0 0 0 0 0 0 0 0 0 0 0 0 0 0 127 0" result="hardAlpha"/>
<feOffset dy="-1"/>
<feGaussianBlur stdDeviation="0.5"/>
<feComposite in2="hardAlpha" operator="arithmetic" k2="-1" k3="1"/>
<feColorMatrix type="matrix" values="0 0 0 0 0 0 0 0 0 0 0 0 0 0 0 0 0 0 0.25 0"/>
<feBlend mode="normal" in2="shape" result="effect1_innerShadow_632_60"/>
</filter>
<filter id="filter3_i_632_60" x="254.479" y="178.635" width="6.48242" height="9.16797" filterUnits="userSpaceOnUse" color-interpolation-filters="sRGB">
<feFlood flood-opacity="0" result="BackgroundImageFix"/>
<feBlend mode="normal" in="SourceGraphic" in2="BackgroundImageFix" result="shape"/>
<feColorMatrix in="SourceAlpha" type="matrix" values="0 0 0 0 0 0 0 0 0 0 0 0 0 0 0 0 0 0 127 0" result="hardAlpha"/>
<feOffset dy="-1"/>
<feGaussianBlur stdDeviation="0.5"/>
<feComposite in2="hardAlpha" operator="arithmetic" k2="-1" k3="1"/>
<feColorMatrix type="matrix" values="0 0 0 0 0 0 0 0 0 0 0 0 0 0 0 0 0 0 0.25 0"/>
<feBlend mode="normal" in2="shape" result="effect1_innerShadow_632_60"/>
</filter>
<filter id="filter4_i_632_60" x="260.754" y="178.535" width="7.03125" height="9.98242" filterUnits="userSpaceOnUse" color-interpolation-filters="sRGB">
<feFlood flood-opacity="0" result="BackgroundImageFix"/>
<feBlend mode="normal" in="SourceGraphic" in2="BackgroundImageFix" result="shape"/>
<feColorMatrix in="SourceAlpha" type="matrix" values="0 0 0 0 0 0 0 0 0 0 0 0 0 0 0 0 0 0 127 0" result="hardAlpha"/>
<feOffset dy="-1"/>
<feGaussianBlur stdDeviation="0.5"/>
<feComposite in2="hardAlpha" operator="arithmetic" k2="-1" k3="1"/>
<feColorMatrix type="matrix" values="0 0 0 0 0 0 0 0 0 0 0 0 0 0 0 0 0 0 0.25 0"/>
<feBlend mode="normal" in2="shape" result="effect1_innerShadow_632_60"/>
</filter>
<filter id="filter5_i_632_60" x="267.801" y="178.635" width="7.72656" height="10.0078" filterUnits="userSpaceOnUse" color-interpolation-filters="sRGB">
<feFlood flood-opacity="0" result="BackgroundImageFix"/>
<feBlend mode="normal" in="SourceGraphic" in2="BackgroundImageFix" result="shape"/>
<feColorMatrix in="SourceAlpha" type="matrix" values="0 0 0 0 0 0 0 0 0 0 0 0 0 0 0 0 0 0 127 0" result="hardAlpha"/>
<feOffset dy="-1"/>
<feGaussianBlur stdDeviation="0.5"/>
<feComposite in2="hardAlpha" operator="arithmetic" k2="-1" k3="1"/>
<feColorMatrix type="matrix" values="0 0 0 0 0 0 0 0 0 0 0 0 0 0 0 0 0 0 0.25 0"/>
<feBlend mode="normal" in2="shape" result="effect1_innerShadow_632_60"/>
</filter>
<filter id="filter6_i_632_60" x="275.527" y="178.635" width="6.41602" height="9.32812" filterUnits="userSpaceOnUse" color-interpolation-filters="sRGB">
<feFlood flood-opacity="0" result="BackgroundImageFix"/>
<feBlend mode="normal" in="SourceGraphic" in2="BackgroundImageFix" result="shape"/>
<feColorMatrix in="SourceAlpha" type="matrix" values="0 0 0 0 0 0 0 0 0 0 0 0 0 0 0 0 0 0 127 0" result="hardAlpha"/>
<feOffset dy="-1"/>
<feGaussianBlur stdDeviation="0.5"/>
<feComposite in2="hardAlpha" operator="arithmetic" k2="-1" k3="1"/>
<feColorMatrix type="matrix" values="0 0 0 0 0 0 0 0 0 0 0 0 0 0 0 0 0 0 0.25 0"/>
<feBlend mode="normal" in2="shape" result="effect1_innerShadow_632_60"/>
</filter>
<filter id="filter7_i_632_60" x="281.943" y="178.635" width="6.41602" height="8.65625" filterUnits="userSpaceOnUse" color-interpolation-filters="sRGB">
<feFlood flood-opacity="0" result="BackgroundImageFix"/>
<feBlend mode="normal" in="SourceGraphic" in2="BackgroundImageFix" result="shape"/>
<feColorMatrix in="SourceAlpha" type="matrix" values="0 0 0 0 0 0 0 0 0 0 0 0 0 0 0 0 0 0 127 0" result="hardAlpha"/>
<feOffset dy="-1"/>
<feGaussianBlur stdDeviation="0.5"/>
<feComposite in2="hardAlpha" operator="arithmetic" k2="-1" k3="1"/>
<feColorMatrix type="matrix" values="0 0 0 0 0 0 0 0 0 0 0 0 0 0 0 0 0 0 0.25 0"/>
<feBlend mode="normal" in2="shape" result="effect1_innerShadow_632_60"/>
</filter>
<filter id="filter8_i_632_60" x="288.359" y="178.635" width="6.41602" height="7.97461" filterUnits="userSpaceOnUse" color-interpolation-filters="sRGB">
<feFlood flood-opacity="0" result="BackgroundImageFix"/>
<feBlend mode="normal" in="SourceGraphic" in2="BackgroundImageFix" result="shape"/>
<feColorMatrix in="SourceAlpha" type="matrix" values="0 0 0 0 0 0 0 0 0 0 0 0 0 0 0 0 0 0 127 0" result="hardAlpha"/>
<feOffset dy="-1"/>
<feGaussianBlur stdDeviation="0.5"/>
<feComposite in2="hardAlpha" operator="arithmetic" k2="-1" k3="1"/>
<feColorMatrix type="matrix" values="0 0 0 0 0 0 0 0 0 0 0 0 0 0 0 0 0 0 0.25 0"/>
<feBlend mode="normal" in2="shape" result="effect1_innerShadow_632_60"/>
</filter>
<filter id="filter9_i_632_60" x="294.775" y="178.705" width="6.41602" height="7.21289" filterUnits="userSpaceOnUse" color-interpolation-filters="sRGB">
<feFlood flood-opacity="0" result="BackgroundImageFix"/>
<feBlend mode="normal" in="SourceGraphic" in2="BackgroundImageFix" result="shape"/>
<feColorMatrix in="SourceAlpha" type="matrix" values="0 0 0 0 0 0 0 0 0 0 0 0 0 0 0 0 0 0 127 0" result="hardAlpha"/>
<feOffset dy="-1"/>
<feGaussianBlur stdDeviation="0.5"/>
<feComposite in2="hardAlpha" operator="arithmetic" k2="-1" k3="1"/>
<feColorMatrix type="matrix" values="0 0 0 0 0 0 0 0 0 0 0 0 0 0 0 0 0 0 0.25 0"/>
<feBlend mode="normal" in2="shape" result="effect1_innerShadow_632_60"/>
</filter>
<filter id="filter10_i_632_60" x="301.191" y="178.635" width="6.41602" height="6.48438" filterUnits="userSpaceOnUse" color-interpolation-filters="sRGB">
<feFlood flood-opacity="0" result="BackgroundImageFix"/>
<feBlend mode="normal" in="SourceGraphic" in2="BackgroundImageFix" result="shape"/>
<feColorMatrix in="SourceAlpha" type="matrix" values="0 0 0 0 0 0 0 0 0 0 0 0 0 0 0 0 0 0 127 0" result="hardAlpha"/>
<feOffset dy="-1"/>
<feGaussianBlur stdDeviation="0.5"/>
<feComposite in2="hardAlpha" operator="arithmetic" k2="-1" k3="1"/>
<feColorMatrix type="matrix" values="0 0 0 0 0 0 0 0 0 0 0 0 0 0 0 0 0 0 0.25 0"/>
<feBlend mode="normal" in2="shape" result="effect1_innerShadow_632_60"/>
</filter>
</defs>
</svg>
