<svg width="1200" height="500" viewBox="0 0 1200 500" fill="none" xmlns="http://www.w3.org/2000/svg">
<rect width="1200" height="500" fill="white"/>
<g clip-path="url(#clip0_160_2)">
<path d="M425.417 61.3586C428.546 61.3586 431.083 59.0435 431.083 56.1877C431.083 53.3319 428.546 51.0168 425.417 51.0168C422.288 51.0168 419.751 53.3319 419.751 56.1877C419.751 59.0435 422.288 61.3586 425.417 61.3586Z" fill="#E6E6E6"/>
<path d="M454.096 61.3586C457.225 61.3586 459.762 59.0435 459.762 56.1877C459.762 53.3319 457.225 51.0168 454.096 51.0168C450.967 51.0168 448.431 53.3319 448.431 56.1877C448.431 59.0435 450.967 61.3586 454.096 61.3586Z" fill="#E6E6E6"/>
<path d="M482.776 61.3586C485.905 61.3586 488.441 59.0435 488.441 56.1877C488.441 53.3319 485.905 51.0168 482.776 51.0168C479.647 51.0168 477.11 53.3319 477.11 56.1877C477.11 59.0435 479.647 61.3586 482.776 61.3586Z" fill="#E6E6E6"/>
<path d="M511.455 61.3586C514.584 61.3586 517.121 59.0435 517.121 56.1877C517.121 53.3319 514.584 51.0168 511.455 51.0168C508.326 51.0168 505.79 53.3319 505.79 56.1877C505.79 59.0435 508.326 61.3586 511.455 61.3586Z" fill="#E6E6E6"/>
<path d="M540.135 61.3586C543.264 61.3586 545.8 59.0435 545.8 56.1877C545.8 53.3319 543.264 51.0168 540.135 51.0168C537.006 51.0168 534.469 53.3319 534.469 56.1877C534.469 59.0435 537.006 61.3586 540.135 61.3586Z" fill="#E6E6E6"/>
<path d="M425.417 87.862C428.546 87.862 431.083 85.547 431.083 82.6912C431.083 79.8354 428.546 77.5203 425.417 77.5203C422.288 77.5203 419.751 79.8354 419.751 82.6912C419.751 85.547 422.288 87.862 425.417 87.862Z" fill="#E6E6E6"/>
<path d="M454.096 87.862C457.225 87.862 459.762 85.547 459.762 82.6912C459.762 79.8354 457.225 77.5203 454.096 77.5203C450.967 77.5203 448.431 79.8354 448.431 82.6912C448.431 85.547 450.967 87.862 454.096 87.862Z" fill="#E6E6E6"/>
<path d="M482.776 87.862C485.905 87.862 488.441 85.547 488.441 82.6912C488.441 79.8354 485.905 77.5203 482.776 77.5203C479.647 77.5203 477.11 79.8354 477.11 82.6912C477.11 85.547 479.647 87.862 482.776 87.862Z" fill="#E6E6E6"/>
<path d="M511.455 87.862C514.584 87.862 517.121 85.547 517.121 82.6912C517.121 79.8354 514.584 77.5203 511.455 77.5203C508.326 77.5203 505.79 79.8354 505.79 82.6912C505.79 85.547 508.326 87.862 511.455 87.862Z" fill="#6C63FF"/>
<path d="M540.135 87.862C543.264 87.862 545.8 85.547 545.8 82.6912C545.8 79.8354 543.264 77.5203 540.135 77.5203C537.006 77.5203 534.469 79.8354 534.469 82.6912C534.469 85.547 537.006 87.862 540.135 87.862Z" fill="#E6E6E6"/>
<path d="M597.494 87.862C600.623 87.862 603.159 85.547 603.159 82.6912C603.159 79.8354 600.623 77.5203 597.494 77.5203C594.364 77.5203 591.828 79.8354 591.828 82.6912C591.828 85.547 594.364 87.862 597.494 87.862Z" fill="#E6E6E6"/>
<path d="M425.417 114.366C428.546 114.366 431.083 112.051 431.083 109.195C431.083 106.339 428.546 104.024 425.417 104.024C422.288 104.024 419.751 106.339 419.751 109.195C419.751 112.051 422.288 114.366 425.417 114.366Z" fill="#E6E6E6"/>
<path d="M454.096 114.366C457.225 114.366 459.762 112.051 459.762 109.195C459.762 106.339 457.225 104.024 454.096 104.024C450.967 104.024 448.431 106.339 448.431 109.195C448.431 112.051 450.967 114.366 454.096 114.366Z" fill="#E6E6E6"/>
<path d="M482.776 114.366C485.905 114.366 488.441 112.051 488.441 109.195C488.441 106.339 485.905 104.024 482.776 104.024C479.647 104.024 477.11 106.339 477.11 109.195C477.11 112.051 479.647 114.366 482.776 114.366Z" fill="#E6E6E6"/>
<path d="M511.455 114.366C514.584 114.366 517.121 112.051 517.121 109.195C517.121 106.339 514.584 104.024 511.455 104.024C508.326 104.024 505.79 106.339 505.79 109.195C505.79 112.051 508.326 114.366 511.455 114.366Z" fill="#E6E6E6"/>
<path d="M540.135 114.366C543.264 114.366 545.8 112.051 545.8 109.195C545.8 106.339 543.264 104.024 540.135 104.024C537.006 104.024 534.469 106.339 534.469 109.195C534.469 112.051 537.006 114.366 540.135 114.366Z" fill="#E6E6E6"/>
<path d="M425.417 140.869C428.546 140.869 431.083 138.554 431.083 135.698C431.083 132.842 428.546 130.527 425.417 130.527C422.288 130.527 419.751 132.842 419.751 135.698C419.751 138.554 422.288 140.869 425.417 140.869Z" fill="#E6E6E6"/>
<path d="M454.096 140.869C457.225 140.869 459.762 138.554 459.762 135.698C459.762 132.842 457.225 130.527 454.096 130.527C450.967 130.527 448.431 132.842 448.431 135.698C448.431 138.554 450.967 140.869 454.096 140.869Z" fill="#E6E6E6"/>
<path d="M482.776 140.869C485.905 140.869 488.441 138.554 488.441 135.698C488.441 132.842 485.905 130.527 482.776 130.527C479.647 130.527 477.11 132.842 477.11 135.698C477.11 138.554 479.647 140.869 482.776 140.869Z" fill="#E6E6E6"/>
<path d="M511.455 140.869C514.584 140.869 517.121 138.554 517.121 135.698C517.121 132.842 514.584 130.527 511.455 130.527C508.326 130.527 505.79 132.842 505.79 135.698C505.79 138.554 508.326 140.869 511.455 140.869Z" fill="#E6E6E6"/>
<path d="M540.135 140.869C543.264 140.869 545.8 138.554 545.8 135.698C545.8 132.842 543.264 130.527 540.135 130.527C537.006 130.527 534.469 132.842 534.469 135.698C534.469 138.554 537.006 140.869 540.135 140.869Z" fill="#E6E6E6"/>
<path d="M568.814 140.869C571.943 140.869 574.48 138.554 574.48 135.698C574.48 132.842 571.943 130.527 568.814 130.527C565.685 130.527 563.148 132.842 563.148 135.698C563.148 138.554 565.685 140.869 568.814 140.869Z" fill="#E6E6E6"/>
<path d="M597.494 140.869C600.623 140.869 603.159 138.554 603.159 135.698C603.159 132.842 600.623 130.527 597.494 130.527C594.364 130.527 591.828 132.842 591.828 135.698C591.828 138.554 594.364 140.869 597.494 140.869Z" fill="#E6E6E6"/>
<path d="M626.173 140.869C629.302 140.869 631.839 138.554 631.839 135.698C631.839 132.842 629.302 130.527 626.173 130.527C623.044 130.527 620.507 132.842 620.507 135.698C620.507 138.554 623.044 140.869 626.173 140.869Z" fill="#E6E6E6"/>
<path d="M654.852 140.869C657.981 140.869 660.518 138.554 660.518 135.698C660.518 132.842 657.981 130.527 654.852 130.527C651.723 130.527 649.187 132.842 649.187 135.698C649.187 138.554 651.723 140.869 654.852 140.869Z" fill="#E6E6E6"/>
<path d="M683.532 140.869C686.661 140.869 689.198 138.554 689.198 135.698C689.198 132.842 686.661 130.527 683.532 130.527C680.403 130.527 677.866 132.842 677.866 135.698C677.866 138.554 680.403 140.869 683.532 140.869Z" fill="#E6E6E6"/>
<path d="M540.135 167.373C543.264 167.373 545.8 165.057 545.8 162.202C545.8 159.346 543.264 157.031 540.135 157.031C537.006 157.031 534.469 159.346 534.469 162.202C534.469 165.057 537.006 167.373 540.135 167.373Z" fill="#E6E6E6"/>
<path d="M568.814 167.373C571.943 167.373 574.48 165.057 574.48 162.202C574.48 159.346 571.943 157.031 568.814 157.031C565.685 157.031 563.148 159.346 563.148 162.202C563.148 165.057 565.685 167.373 568.814 167.373Z" fill="#6C63FF"/>
<path d="M597.494 167.373C600.623 167.373 603.159 165.057 603.159 162.202C603.159 159.346 600.623 157.031 597.494 157.031C594.364 157.031 591.828 159.346 591.828 162.202C591.828 165.057 594.364 167.373 597.494 167.373Z" fill="#E6E6E6"/>
<path d="M626.173 167.373C629.302 167.373 631.839 165.057 631.839 162.202C631.839 159.346 629.302 157.031 626.173 157.031C623.044 157.031 620.507 159.346 620.507 162.202C620.507 165.057 623.044 167.373 626.173 167.373Z" fill="#E6E6E6"/>
<path d="M654.852 167.373C657.981 167.373 660.518 165.057 660.518 162.202C660.518 159.346 657.981 157.031 654.852 157.031C651.723 157.031 649.187 159.346 649.187 162.202C649.187 165.057 651.723 167.373 654.852 167.373Z" fill="#E6E6E6"/>
<path d="M683.532 167.373C686.661 167.373 689.198 165.057 689.198 162.202C689.198 159.346 686.661 157.031 683.532 157.031C680.403 157.031 677.866 159.346 677.866 162.202C677.866 165.057 680.403 167.373 683.532 167.373Z" fill="#E6E6E6"/>
<path d="M540.135 193.876C543.264 193.876 545.8 191.561 545.8 188.705C545.8 185.849 543.264 183.534 540.135 183.534C537.006 183.534 534.469 185.849 534.469 188.705C534.469 191.561 537.006 193.876 540.135 193.876Z" fill="#E6E6E6"/>
<path d="M568.814 193.876C571.943 193.876 574.48 191.561 574.48 188.705C574.48 185.849 571.943 183.534 568.814 183.534C565.685 183.534 563.148 185.849 563.148 188.705C563.148 191.561 565.685 193.876 568.814 193.876Z" fill="#E6E6E6"/>
<path d="M597.494 193.876C600.623 193.876 603.159 191.561 603.159 188.705C603.159 185.849 600.623 183.534 597.494 183.534C594.364 183.534 591.828 185.849 591.828 188.705C591.828 191.561 594.364 193.876 597.494 193.876Z" fill="#E6E6E6"/>
<path d="M626.173 193.876C629.302 193.876 631.839 191.561 631.839 188.705C631.839 185.849 629.302 183.534 626.173 183.534C623.044 183.534 620.507 185.849 620.507 188.705C620.507 191.561 623.044 193.876 626.173 193.876Z" fill="#E6E6E6"/>
<path d="M654.852 193.876C657.981 193.876 660.518 191.561 660.518 188.705C660.518 185.849 657.981 183.534 654.852 183.534C651.723 183.534 649.187 185.849 649.187 188.705C649.187 191.561 651.723 193.876 654.852 193.876Z" fill="#6C63FF"/>
<path d="M683.532 193.876C686.661 193.876 689.198 191.561 689.198 188.705C689.198 185.849 686.661 183.534 683.532 183.534C680.403 183.534 677.866 185.849 677.866 188.705C677.866 191.561 680.403 193.876 683.532 193.876Z" fill="#E6E6E6"/>
<path d="M540.135 220.38C543.264 220.38 545.8 218.065 545.8 215.209C545.8 212.353 543.264 210.038 540.135 210.038C537.006 210.038 534.469 212.353 534.469 215.209C534.469 218.065 537.006 220.38 540.135 220.38Z" fill="#E6E6E6"/>
<path d="M568.814 220.38C571.943 220.38 574.48 218.065 574.48 215.209C574.48 212.353 571.943 210.038 568.814 210.038C565.685 210.038 563.148 212.353 563.148 215.209C563.148 218.065 565.685 220.38 568.814 220.38Z" fill="#E6E6E6"/>
<path d="M597.494 220.38C600.623 220.38 603.159 218.065 603.159 215.209C603.159 212.353 600.623 210.038 597.494 210.038C594.364 210.038 591.828 212.353 591.828 215.209C591.828 218.065 594.364 220.38 597.494 220.38Z" fill="#E6E6E6"/>
<path d="M626.173 220.38C629.302 220.38 631.839 218.065 631.839 215.209C631.839 212.353 629.302 210.038 626.173 210.038C623.044 210.038 620.507 212.353 620.507 215.209C620.507 218.065 623.044 220.38 626.173 220.38Z" fill="#E6E6E6"/>
<path d="M654.852 220.38C657.981 220.38 660.518 218.065 660.518 215.209C660.518 212.353 657.981 210.038 654.852 210.038C651.723 210.038 649.187 212.353 649.187 215.209C649.187 218.065 651.723 220.38 654.852 220.38Z" fill="#E6E6E6"/>
<path d="M683.532 220.38C686.661 220.38 689.198 218.065 689.198 215.209C689.198 212.353 686.661 210.038 683.532 210.038C680.403 210.038 677.866 212.353 677.866 215.209C677.866 218.065 680.403 220.38 683.532 220.38Z" fill="#E6E6E6"/>
<path d="M425.417 246.883C428.546 246.883 431.083 244.568 431.083 241.712C431.083 238.856 428.546 236.541 425.417 236.541C422.288 236.541 419.751 238.856 419.751 241.712C419.751 244.568 422.288 246.883 425.417 246.883Z" fill="#E6E6E6"/>
<path d="M454.096 246.883C457.225 246.883 459.762 244.568 459.762 241.712C459.762 238.856 457.225 236.541 454.096 236.541C450.967 236.541 448.431 238.856 448.431 241.712C448.431 244.568 450.967 246.883 454.096 246.883Z" fill="#E6E6E6"/>
<path d="M482.776 246.883C485.905 246.883 488.441 244.568 488.441 241.712C488.441 238.856 485.905 236.541 482.776 236.541C479.647 236.541 477.11 238.856 477.11 241.712C477.11 244.568 479.647 246.883 482.776 246.883Z" fill="#E6E6E6"/>
<path d="M511.455 246.883C514.584 246.883 517.121 244.568 517.121 241.712C517.121 238.856 514.584 236.541 511.455 236.541C508.326 236.541 505.79 238.856 505.79 241.712C505.79 244.568 508.326 246.883 511.455 246.883Z" fill="#E6E6E6"/>
<path d="M540.135 246.883C543.264 246.883 545.8 244.568 545.8 241.712C545.8 238.856 543.264 236.541 540.135 236.541C537.006 236.541 534.469 238.856 534.469 241.712C534.469 244.568 537.006 246.883 540.135 246.883Z" fill="#E6E6E6"/>
<path d="M568.814 246.883C571.943 246.883 574.48 244.568 574.48 241.712C574.48 238.856 571.943 236.541 568.814 236.541C565.685 236.541 563.148 238.856 563.148 241.712C563.148 244.568 565.685 246.883 568.814 246.883Z" fill="#E6E6E6"/>
<path d="M597.494 246.883C600.623 246.883 603.159 244.568 603.159 241.712C603.159 238.856 600.623 236.541 597.494 236.541C594.364 236.541 591.828 238.856 591.828 241.712C591.828 244.568 594.364 246.883 597.494 246.883Z" fill="#E6E6E6"/>
<path d="M626.173 246.883C629.302 246.883 631.839 244.568 631.839 241.712C631.839 238.856 629.302 236.541 626.173 236.541C623.044 236.541 620.507 238.856 620.507 241.712C620.507 244.568 623.044 246.883 626.173 246.883Z" fill="#E6E6E6"/>
<path d="M654.852 246.883C657.981 246.883 660.518 244.568 660.518 241.712C660.518 238.856 657.981 236.541 654.852 236.541C651.723 236.541 649.187 238.856 649.187 241.712C649.187 244.568 651.723 246.883 654.852 246.883Z" fill="#E6E6E6"/>
<path d="M683.532 246.883C686.661 246.883 689.198 244.568 689.198 241.712C689.198 238.856 686.661 236.541 683.532 236.541C680.403 236.541 677.866 238.856 677.866 241.712C677.866 244.568 680.403 246.883 683.532 246.883Z" fill="#E6E6E6"/>
<path d="M425.413 273.386C428.543 273.386 431.079 271.071 431.079 268.215C431.079 265.359 428.543 263.044 425.413 263.044C422.284 263.044 419.748 265.359 419.748 268.215C419.748 271.071 422.284 273.386 425.413 273.386Z" fill="#E6E6E6"/>
<path d="M454.096 273.386C457.225 273.386 459.762 271.071 459.762 268.216C459.762 265.36 457.225 263.045 454.096 263.045C450.967 263.045 448.431 265.36 448.431 268.216C448.431 271.071 450.967 273.386 454.096 273.386Z" fill="#E6E6E6"/>
<path d="M425.413 299.889C428.543 299.889 431.079 297.574 431.079 294.718C431.079 291.862 428.543 289.547 425.413 289.547C422.284 289.547 419.748 291.862 419.748 294.718C419.748 297.574 422.284 299.889 425.413 299.889Z" fill="#E6E6E6"/>
<path d="M454.096 299.89C457.225 299.89 459.762 297.575 459.762 294.719C459.762 291.863 457.225 289.548 454.096 289.548C450.967 289.548 448.431 291.863 448.431 294.719C448.431 297.575 450.967 299.89 454.096 299.89Z" fill="#E6E6E6"/>
<path d="M511.455 299.89C514.584 299.89 517.121 297.575 517.121 294.719C517.121 291.863 514.584 289.548 511.455 289.548C508.326 289.548 505.79 291.863 505.79 294.719C505.79 297.575 508.326 299.89 511.455 299.89Z" fill="#E6E6E6"/>
<path d="M797.323 112.023H572.804C571.701 112.022 570.644 111.622 569.865 110.91C569.086 110.199 568.647 109.234 568.646 108.228V57.3982C568.647 56.3921 569.086 55.4276 569.865 54.7163C570.644 54.0049 571.701 53.6047 572.804 53.6035H797.323C798.425 53.6047 799.482 54.0049 800.262 54.7163C801.041 55.4276 801.48 56.3921 801.481 57.3982V108.228C801.48 109.234 801.041 110.199 800.262 110.91C799.482 111.622 798.425 112.022 797.323 112.023ZM572.804 55.1214C572.142 55.122 571.508 55.3621 571.04 55.789C570.573 56.2158 570.31 56.7945 570.309 57.3982V108.228C570.31 108.832 570.573 109.411 571.04 109.838C571.508 110.264 572.142 110.504 572.804 110.505H797.323C797.985 110.504 798.619 110.264 799.086 109.838C799.554 109.411 799.817 108.832 799.818 108.228V57.3982C799.817 56.7945 799.554 56.2158 799.086 55.789C798.619 55.3621 797.985 55.122 797.323 55.1214H572.804Z" fill="#E6E6E6"/>
<path d="M601.908 98.7508C611.552 98.7508 619.371 91.6152 619.371 82.8131C619.371 74.011 611.552 66.8755 601.908 66.8755C592.264 66.8755 584.445 74.011 584.445 82.8131C584.445 91.6152 592.264 98.7508 601.908 98.7508Z" fill="#6C63FF"/>
<path d="M642.238 72.188C641.466 72.188 640.726 72.4678 640.18 72.966C639.634 73.4641 639.328 74.1398 639.328 74.8443C639.328 75.5487 639.634 76.2244 640.18 76.7225C640.726 77.2207 641.466 77.5005 642.238 77.5005H719.572C720.344 77.5005 721.085 77.2207 721.63 76.7225C722.176 76.2244 722.483 75.5487 722.483 74.8443C722.483 74.1398 722.176 73.4641 721.63 72.966C721.085 72.4678 720.344 72.188 719.572 72.188H642.238Z" fill="#E6E6E6"/>
<path d="M642.238 88.1257C641.466 88.1257 640.726 88.4056 640.18 88.9037C639.634 89.4019 639.328 90.0775 639.328 90.782C639.328 91.4865 639.634 92.1621 640.18 92.6603C640.726 93.1584 641.466 93.4383 642.238 93.4383H779.444C780.216 93.4383 780.956 93.1584 781.502 92.6603C782.048 92.1621 782.355 91.4865 782.355 90.782C782.355 90.0775 782.048 89.4019 781.502 88.9037C780.956 88.4056 780.216 88.1257 779.444 88.1257H642.238Z" fill="#E6E6E6"/>
<path d="M508.774 215.238H284.255C283.153 215.237 282.096 214.837 281.316 214.126C280.537 213.414 280.098 212.45 280.097 211.444V160.614C280.098 159.607 280.537 158.643 281.316 157.932C282.096 157.22 283.153 156.82 284.255 156.819H508.774C509.877 156.82 510.934 157.22 511.713 157.932C512.492 158.643 512.931 159.607 512.932 160.614V211.444C512.931 212.45 512.492 213.414 511.713 214.126C510.934 214.837 509.877 215.237 508.774 215.238ZM284.255 158.337C283.594 158.337 282.959 158.577 282.492 159.004C282.024 159.431 281.761 160.01 281.76 160.614V211.444C281.761 212.047 282.024 212.626 282.492 213.053C282.959 213.48 283.594 213.72 284.255 213.72H508.774C509.436 213.72 510.07 213.48 510.538 213.053C511.005 212.626 511.268 212.047 511.269 211.444V160.614C511.268 160.01 511.005 159.431 510.538 159.004C510.07 158.577 509.436 158.337 508.774 158.337H284.255Z" fill="#E6E6E6"/>
<path d="M313.359 201.966C323.004 201.966 330.822 194.83 330.822 186.028C330.822 177.226 323.004 170.091 313.359 170.091C303.715 170.091 295.897 177.226 295.897 186.028C295.897 194.83 303.715 201.966 313.359 201.966Z" fill="#6C63FF"/>
<path d="M353.689 175.403C352.918 175.403 352.177 175.683 351.631 176.181C351.086 176.679 350.779 177.355 350.779 178.059C350.779 178.764 351.086 179.439 351.631 179.938C352.177 180.436 352.918 180.716 353.689 180.716H434.35C435.122 180.716 435.862 180.436 436.408 179.938C436.954 179.439 437.261 178.764 437.261 178.059C437.261 177.355 436.954 176.679 436.408 176.181C435.862 175.683 435.122 175.403 434.35 175.403H353.689Z" fill="#E6E6E6"/>
<path d="M353.689 191.341C352.918 191.341 352.177 191.621 351.631 192.119C351.086 192.617 350.779 193.293 350.779 193.997C350.779 194.702 351.086 195.377 351.631 195.875C352.177 196.374 352.918 196.653 353.689 196.653H490.896C491.668 196.653 492.408 196.374 492.954 195.875C493.499 195.377 493.806 194.702 493.806 193.997C493.806 193.293 493.499 192.617 492.954 192.119C492.408 191.621 491.668 191.341 490.896 191.341H353.689Z" fill="#E6E6E6"/>
<path d="M711.673 326.801H487.154C486.051 326.8 484.995 326.4 484.215 325.689C483.436 324.977 482.997 324.013 482.996 323.007V272.177C482.997 271.171 483.436 270.206 484.215 269.495C484.995 268.783 486.051 268.383 487.154 268.382H711.673C712.775 268.383 713.832 268.783 714.612 269.495C715.391 270.206 715.83 271.171 715.831 272.177V323.007C715.83 324.013 715.391 324.977 714.612 325.689C713.832 326.4 712.775 326.8 711.673 326.801ZM487.154 269.9C486.492 269.901 485.858 270.141 485.39 270.568C484.923 270.994 484.66 271.573 484.659 272.177V323.007C484.66 323.611 484.923 324.189 485.39 324.616C485.858 325.043 486.492 325.283 487.154 325.284H711.673C712.335 325.283 712.969 325.043 713.436 324.616C713.904 324.189 714.167 323.611 714.168 323.007V272.177C714.167 271.573 713.904 270.994 713.436 270.568C712.969 270.141 712.335 269.901 711.673 269.9H487.154Z" fill="#3F3D56"/>
<path d="M516.258 313.529C525.902 313.529 533.721 306.394 533.721 297.592C533.721 288.79 525.902 281.654 516.258 281.654C506.614 281.654 498.795 288.79 498.795 297.592C498.795 306.394 506.614 313.529 516.258 313.529Z" fill="#6C63FF"/>
<path d="M556.588 286.967C555.816 286.967 555.076 287.246 554.53 287.745C553.984 288.243 553.678 288.918 553.678 289.623C553.678 290.327 553.984 291.003 554.53 291.501C555.076 291.999 555.816 292.279 556.588 292.279H630.596C631.368 292.279 632.109 291.999 632.654 291.501C633.2 291.003 633.507 290.327 633.507 289.623C633.507 288.918 633.2 288.243 632.654 287.745C632.109 287.246 631.368 286.967 630.596 286.967H556.588Z" fill="#E6E6E6"/>
<path d="M556.588 302.904C555.816 302.904 555.076 303.184 554.53 303.682C553.984 304.18 553.678 304.856 553.678 305.561C553.678 306.265 553.984 306.941 554.53 307.439C555.076 307.937 555.816 308.217 556.588 308.217H693.794C694.566 308.217 695.307 307.937 695.852 307.439C696.398 306.941 696.705 306.265 696.705 305.561C696.705 304.856 696.398 304.18 695.852 303.682C695.307 303.184 694.566 302.904 693.794 302.904H556.588Z" fill="#E6E6E6"/>
<path d="M832.455 313.91C822.705 340.608 782.816 312.292 782.816 312.292L793.453 211.166C809.408 199.84 826.25 209.548 826.25 209.548L832.455 313.91Z" fill="#E6E6E6"/>
<path d="M830.361 403.51L843.953 403.641L840.558 439.398L830.363 439.399L830.361 403.51Z" fill="#FFB8B8"/>
<path d="M827.762 436.36H847.839C851.231 436.364 854.484 437.595 856.882 439.784C859.281 441.974 860.63 444.942 860.634 448.038V448.417H827.762V436.36Z" fill="#2F2E41"/>
<path d="M793.515 403.51L778.469 403.51L783.319 439.398L793.513 439.399L793.515 403.51Z" fill="#FFB8B8"/>
<path d="M763.241 448.417V448.038C763.241 444.94 764.59 441.97 766.989 439.78C769.389 437.59 772.643 436.36 776.037 436.36L796.114 436.361L796.113 448.418L763.241 448.417Z" fill="#2F2E41"/>
<path d="M829.444 433.204L811.638 338.472L795.14 431.983L778.425 432.831L773.968 307.541L774.304 307.473C777.068 306.908 842.106 293.87 852.768 312.521L852.822 312.616L843.924 433.63L829.444 433.204Z" fill="#2F2E41"/>
<path d="M810.572 199.315C821.852 199.315 830.996 190.97 830.996 180.675C830.996 170.38 821.852 162.035 810.572 162.035C799.293 162.035 790.149 170.38 790.149 180.675C790.149 190.97 799.293 199.315 810.572 199.315Z" fill="#FFB8B8"/>
<path d="M827.731 321.899C825.337 321.294 823.611 318.785 822.301 314.002C822.076 313.178 800.871 230.739 818.803 215.803L822.937 205.323L828.593 208.765C830.595 208.782 851.063 209.255 852.812 221.229C854.524 232.95 859.186 311.476 854.5 316.361C854.408 316.468 854.292 316.556 854.159 316.618C854.025 316.679 853.879 316.713 853.729 316.717C848.981 316.717 847.539 311.908 847.2 310.375C846.071 310.802 842.708 312.37 837.181 317.415C833.758 320.539 831.074 322.037 828.856 322.037C828.476 322.038 828.097 321.992 827.731 321.899Z" fill="#2F2E41"/>
<path d="M783.408 317.415C777.88 312.369 774.517 310.801 773.389 310.375C773.051 311.908 771.609 316.717 766.86 316.717C766.711 316.713 766.565 316.679 766.431 316.618C766.298 316.556 766.181 316.468 766.09 316.361C761.404 311.477 766.066 232.95 767.778 221.229C769.527 209.255 789.995 208.782 791.996 208.765L797.653 205.323L801.787 215.803C819.718 230.738 798.514 313.178 798.288 314.003C796.978 318.785 795.253 321.294 792.859 321.899C792.493 321.992 792.114 322.038 791.734 322.037C789.516 322.037 786.832 320.539 783.408 317.415Z" fill="#2F2E41"/>
<path d="M827.435 191.323C830.89 189.055 833.506 185.88 834.936 182.221C836.366 178.563 836.542 174.593 835.44 170.842C834.338 167.09 832.01 163.733 828.767 161.217C825.524 158.702 821.518 157.148 817.283 156.761C815.403 156.589 813.378 156.615 811.819 155.64C810.434 154.774 809.689 153.273 808.416 152.274C807.608 151.703 806.679 151.291 805.688 151.063C804.697 150.835 803.665 150.796 802.656 150.949C800.644 151.265 798.693 151.85 796.867 152.685C792.338 154.528 787.524 156.796 785.463 160.912C783.678 164.477 784.466 168.873 786.993 172.043C789.65 175.18 793.524 177.268 797.817 177.876C802.084 178.458 806.442 178.1 810.527 176.831C813.222 176.057 815.883 175.002 818.708 174.916C820.912 174.849 823.088 175.382 824.96 176.447C826.832 177.511 828.314 179.06 829.219 180.896C830.123 182.732 830.409 184.772 830.039 186.757C829.67 188.741 828.662 190.581 827.144 192.041" fill="#2F2E41"/>
<path d="M716.115 302.21C717.294 302.185 718.456 301.948 719.535 301.514C720.614 301.079 721.588 300.454 722.403 299.675C723.217 298.897 723.856 297.979 724.282 296.976C724.708 295.972 724.913 294.901 724.886 293.825L736.796 275.484L727.594 267.784L715.047 285.855C712.732 286.058 710.594 287.073 709.082 288.685C707.57 290.298 706.802 292.383 706.941 294.502C707.079 296.621 708.112 298.608 709.823 300.046C711.534 301.483 713.79 302.259 716.115 302.21Z" fill="#FFB8B8"/>
<path d="M854.296 322.303C855.284 321.715 856.135 320.955 856.802 320.067C857.468 319.179 857.936 318.179 858.179 317.126C858.422 316.073 858.436 314.986 858.219 313.928C858.002 312.87 857.559 311.861 856.915 310.959L856.459 289.643L844.193 287.52L843.953 308.911C842.102 310.197 840.869 312.087 840.514 314.185C840.159 316.282 840.71 318.424 842.05 320.159C843.39 321.893 845.415 323.086 847.699 323.486C849.983 323.886 852.348 323.462 854.296 322.303Z" fill="#FFB8B8"/>
<path d="M719.738 272.72L719.599 272.518L719.737 272.316C737.601 246.134 775.101 213.428 775.477 213.101L775.596 212.998L780.228 212.954L785.234 224.338C783.676 227.075 741.665 280.583 736.117 284.132C735.675 284.411 735.174 284.602 734.647 284.693C734.119 284.784 733.576 284.772 733.053 284.659C732.129 284.464 731.249 284.122 730.455 283.649C725.336 280.755 720 273.098 719.738 272.72Z" fill="#2F2E41"/>
<path d="M841.859 302.597C841.361 302.442 840.904 302.194 840.516 301.869C840.129 301.545 839.819 301.15 839.608 300.711C836.933 295.015 848.397 223.07 848.886 220.01L848.978 219.432L852.854 221.673L852.892 221.826C853.006 222.285 864.294 268.118 861.235 298.574L861.213 298.791L860.995 298.883C860.529 299.081 851.127 303.022 844.86 303.022C843.84 303.046 842.823 302.902 841.859 302.597Z" fill="#2F2E41"/>
<path d="M919.072 448.983H697.879C697.658 448.983 697.447 448.903 697.291 448.761C697.135 448.619 697.047 448.426 697.047 448.224C697.047 448.023 697.135 447.83 697.291 447.688C697.447 447.545 697.658 447.465 697.879 447.465H919.072C919.292 447.465 919.504 447.545 919.66 447.688C919.816 447.83 919.903 448.023 919.903 448.224C919.903 448.426 919.816 448.619 919.66 448.761C919.504 448.903 919.292 448.983 919.072 448.983Z" fill="#3F3D56"/>
</g>
<defs>
<clipPath id="clip0_160_2">
<rect width="639.806" height="397.966" fill="white" transform="translate(280.097 51.0168)"/>
</clipPath>
</defs>
</svg>
