<svg width="145" height="79" viewBox="0 0 145 79" fill="none" xmlns="http://www.w3.org/2000/svg">
<path d="M34.6879 69.9798H33.6311C33.5686 69.6759 33.4593 69.4088 33.303 69.1787C33.1496 68.9486 32.9621 68.7554 32.7405 68.5991C32.5218 68.4401 32.2789 68.3207 32.0118 68.2412C31.7448 68.1616 31.4664 68.1219 31.1766 68.1219C30.6482 68.1219 30.1695 68.2554 29.7405 68.5224C29.3144 68.7895 28.9749 69.183 28.722 69.7028C28.472 70.2227 28.347 70.8605 28.347 71.6162C28.347 72.3719 28.472 73.0097 28.722 73.5295C28.9749 74.0494 29.3144 74.4429 29.7405 74.7099C30.1695 74.977 30.6482 75.1105 31.1766 75.1105C31.4664 75.1105 31.7448 75.0707 32.0118 74.9912C32.2789 74.9116 32.5218 74.7937 32.7405 74.6375C32.9621 74.4784 33.1496 74.2838 33.303 74.0537C33.4593 73.8207 33.5686 73.5537 33.6311 73.2526H34.6879C34.6084 73.6986 34.4635 74.0977 34.2533 74.45C34.0431 74.8023 33.7817 75.102 33.4692 75.3491C33.1567 75.5935 32.8058 75.7795 32.4166 75.9074C32.0303 76.0352 31.6169 76.0991 31.1766 76.0991C30.4323 76.0991 29.7703 75.9173 29.1908 75.5537C28.6112 75.1901 28.1553 74.673 27.8229 74.0026C27.4905 73.3321 27.3243 72.5366 27.3243 71.6162C27.3243 70.6957 27.4905 69.9003 27.8229 69.2298C28.1553 68.5594 28.6112 68.0423 29.1908 67.6787C29.7703 67.3151 30.4323 67.1332 31.1766 67.1332C31.6169 67.1332 32.0303 67.1972 32.4166 67.325C32.8058 67.4528 33.1567 67.6403 33.4692 67.8875C33.7817 68.1318 34.0431 68.4301 34.2533 68.7824C34.4635 69.1318 34.6084 69.531 34.6879 69.9798ZM43.7593 71.6162C43.7593 72.5366 43.5931 73.3321 43.2607 74.0026C42.9284 74.673 42.4724 75.1901 41.8928 75.5537C41.3133 75.9173 40.6514 76.0991 39.907 76.0991C39.1627 76.0991 38.5008 75.9173 37.9213 75.5537C37.3417 75.1901 36.8857 74.673 36.5534 74.0026C36.221 73.3321 36.0548 72.5366 36.0548 71.6162C36.0548 70.6957 36.221 69.9003 36.5534 69.2298C36.8857 68.5594 37.3417 68.0423 37.9213 67.6787C38.5008 67.3151 39.1627 67.1332 39.907 67.1332C40.6514 67.1332 41.3133 67.3151 41.8928 67.6787C42.4724 68.0423 42.9284 68.5594 43.2607 69.2298C43.5931 69.9003 43.7593 70.6957 43.7593 71.6162ZM42.7366 71.6162C42.7366 70.8605 42.6102 70.2227 42.3573 69.7028C42.1073 69.183 41.7678 68.7895 41.3389 68.5224C40.9127 68.2554 40.4355 68.1219 39.907 68.1219C39.3786 68.1219 38.8999 68.2554 38.471 68.5224C38.0448 68.7895 37.7053 69.183 37.4525 69.7028C37.2025 70.2227 37.0775 70.8605 37.0775 71.6162C37.0775 72.3719 37.2025 73.0097 37.4525 73.5295C37.7053 74.0494 38.0448 74.4429 38.471 74.7099C38.8999 74.977 39.3786 75.1105 39.907 75.1105C40.4355 75.1105 40.9127 74.977 41.3389 74.7099C41.7678 74.4429 42.1073 74.0494 42.3573 73.5295C42.6102 73.0097 42.7366 72.3719 42.7366 71.6162ZM52.4568 67.2526V75.9798H51.434L46.6784 69.1276H46.5931V75.9798H45.5363V67.2526H46.559L51.3318 74.1219H51.417V67.2526H52.4568ZM59.3442 69.4344C59.2931 69.0026 59.0857 68.6673 58.722 68.4287C58.3584 68.1901 57.9124 68.0707 57.384 68.0707C56.9976 68.0707 56.6595 68.1332 56.3698 68.2582C56.0828 68.3832 55.8584 68.5551 55.6965 68.7739C55.5374 68.9926 55.4578 69.2412 55.4578 69.5196C55.4578 69.7526 55.5132 69.9528 55.624 70.1205C55.7377 70.2852 55.8825 70.423 56.0587 70.5338C56.2348 70.6418 56.4195 70.7312 56.6127 70.8023C56.8058 70.8705 56.9834 70.9259 57.1453 70.9685L58.0317 71.2071C58.259 71.2668 58.5118 71.3491 58.7902 71.4543C59.0715 71.5594 59.3399 71.7028 59.5956 71.8847C59.8541 72.0636 60.0672 72.2937 60.2348 72.575C60.4024 72.8562 60.4862 73.2014 60.4862 73.6105C60.4862 74.0821 60.3627 74.5082 60.1155 74.8889C59.8712 75.2696 59.5132 75.5722 59.0416 75.7966C58.5729 76.021 58.0033 76.1332 57.3328 76.1332C56.7078 76.1332 56.1666 76.0324 55.7093 75.8307C55.2547 75.629 54.8968 75.3477 54.6354 74.9869C54.3769 74.6261 54.2306 74.2071 54.1965 73.7298H55.2874C55.3158 74.0594 55.4266 74.3321 55.6198 74.548C55.8158 74.7611 56.0629 74.9202 56.3612 75.0253C56.6624 75.1276 56.9862 75.1787 57.3328 75.1787C57.7362 75.1787 58.0985 75.1134 58.4195 74.9827C58.7405 74.8491 58.9948 74.6645 59.1823 74.4287C59.3698 74.1901 59.4635 73.9116 59.4635 73.5935C59.4635 73.3037 59.3825 73.0679 59.2206 72.8861C59.0587 72.7043 58.8456 72.5565 58.5814 72.4429C58.3172 72.3293 58.0317 72.2298 57.7249 72.1446L56.651 71.8378C55.9692 71.6418 55.4294 71.3619 55.0317 70.9983C54.634 70.6347 54.4351 70.1588 54.4351 69.5707C54.4351 69.0821 54.5672 68.656 54.8314 68.2923C55.0985 67.9259 55.4564 67.6418 55.9053 67.4401C56.357 67.2355 56.8612 67.1332 57.4181 67.1332C57.9806 67.1332 58.4806 67.2341 58.9181 67.4358C59.3556 67.6347 59.7021 67.9074 59.9578 68.254C60.2164 68.6006 60.3527 68.994 60.3669 69.4344H59.3442ZM67.9511 67.2526H69.0079V73.031C69.0079 73.6276 68.8673 74.1602 68.586 74.629C68.3076 75.0949 67.9142 75.4628 67.4056 75.7327C66.8971 75.9997 66.3005 76.1332 65.6159 76.1332C64.9312 76.1332 64.3346 75.9997 63.8261 75.7327C63.3176 75.4628 62.9227 75.0949 62.6414 74.629C62.363 74.1602 62.2238 73.6276 62.2238 73.031V67.2526H63.2806V72.9457C63.2806 73.3719 63.3744 73.7511 63.5619 74.0835C63.7494 74.4131 64.0164 74.673 64.363 74.8634C64.7124 75.0509 65.1301 75.1446 65.6159 75.1446C66.1017 75.1446 66.5193 75.0509 66.8687 74.8634C67.2181 74.673 67.4852 74.4131 67.6698 74.0835C67.8573 73.7511 67.9511 73.3719 67.9511 72.9457V67.2526ZM71.1183 75.9798V67.2526H72.1752V75.0423H76.232V75.9798H71.1183ZM78.7771 75.9798H77.6691L80.8737 67.2526H81.9646L85.1691 75.9798H84.0612L81.4532 68.6332H81.385L78.7771 75.9798ZM79.1862 72.5707H83.6521V73.5082H79.1862V72.5707ZM85.0317 68.1901V67.2526H91.5771V68.1901H88.8328V75.9798H87.776V68.1901H85.0317ZM92.5466 75.9798H91.4387L94.6432 67.2526H95.7341L98.9387 75.9798H97.8307L95.2227 68.6332H95.1546L92.5466 75.9798ZM92.9557 72.5707H97.4216V73.5082H92.9557V72.5707ZM107.218 67.2526V75.9798H106.196L101.44 69.1276H101.355V75.9798H100.298V67.2526H101.321L106.093 74.1219H106.179V67.2526H107.218ZM116.356 69.9798H115.299C115.237 69.6759 115.127 69.4088 114.971 69.1787C114.818 68.9486 114.63 68.7554 114.408 68.5991C114.19 68.4401 113.947 68.3207 113.68 68.2412C113.413 68.1616 113.134 68.1219 112.845 68.1219C112.316 68.1219 111.837 68.2554 111.408 68.5224C110.982 68.7895 110.643 69.183 110.39 69.7028C110.14 70.2227 110.015 70.8605 110.015 71.6162C110.015 72.3719 110.14 73.0097 110.39 73.5295C110.643 74.0494 110.982 74.4429 111.408 74.7099C111.837 74.977 112.316 75.1105 112.845 75.1105C113.134 75.1105 113.413 75.0707 113.68 74.9912C113.947 74.9116 114.19 74.7937 114.408 74.6375C114.63 74.4784 114.818 74.2838 114.971 74.0537C115.127 73.8207 115.237 73.5537 115.299 73.2526H116.356C116.276 73.6986 116.131 74.0977 115.921 74.45C115.711 74.8023 115.45 75.102 115.137 75.3491C114.825 75.5935 114.474 75.7795 114.085 75.9074C113.698 76.0352 113.285 76.0991 112.845 76.0991C112.1 76.0991 111.438 75.9173 110.859 75.5537C110.279 75.1901 109.823 74.673 109.491 74.0026C109.158 73.3321 108.992 72.5366 108.992 71.6162C108.992 70.6957 109.158 69.9003 109.491 69.2298C109.823 68.5594 110.279 68.0423 110.859 67.6787C111.438 67.3151 112.1 67.1332 112.845 67.1332C113.285 67.1332 113.698 67.1972 114.085 67.325C114.474 67.4528 114.825 67.6403 115.137 67.8875C115.45 68.1318 115.711 68.4301 115.921 68.7824C116.131 69.1318 116.276 69.531 116.356 69.9798ZM117.314 67.2526H118.524L120.944 71.3264H121.047L123.467 67.2526H124.677L121.524 72.3832V75.9798H120.467V72.3832L117.314 67.2526Z" fill="black"/>
<line x1="11.8486" y1="59.4571" x2="140.369" y2="59.4571" stroke="#2400FF" strokeWidth="2"/>
<path d="M13.3955 47.6892C17.2079 49.7167 21.4804 50.7222 25.7969 50.6078C30.1133 50.4933 34.3266 49.2628 38.0262 47.0362C41.7257 44.8095 44.7855 41.6625 46.9074 37.9019C49.0294 34.1412 50.1411 29.8951 50.1342 25.5771C50.1274 21.2592 49.0024 17.0166 46.8686 13.2626C44.7348 9.50868 41.6651 6.3714 37.9586 4.1564C34.252 1.9414 30.0349 0.724196 25.7181 0.623364C21.4013 0.522532 17.1319 1.54151 13.326 3.58103L25.1343 25.6165L13.3955 47.6892Z" fill="#2400FF"/>
<line x1="17.396" y1="45.7285" x2="17.396" y2="7.17208" stroke="#2400FF" strokeWidth="2"/>
<line x1="16.6597" y1="25.4503" x2="25.6909" y2="25.4503" stroke="#2400FF" strokeWidth="2"/>
<path d="M71.2716 39.6165H61.4747V11.9802H71.3526C74.1324 11.9802 76.5254 12.5334 78.5316 13.64C80.5377 14.7375 82.0806 16.3164 83.1601 18.3765C84.2487 20.4366 84.7929 22.9016 84.7929 25.7714C84.7929 28.6502 84.2487 31.1241 83.1601 33.1933C82.0806 35.2624 80.5287 36.8502 78.5046 37.9567C76.4894 39.0633 74.0784 39.6165 71.2716 39.6165ZM67.3178 34.6102H71.0287C72.756 34.6102 74.2089 34.3043 75.3874 33.6925C76.5749 33.0718 77.4655 32.1137 78.0593 30.8183C78.662 29.5138 78.9634 27.8315 78.9634 25.7714C78.9634 23.7292 78.662 22.0604 78.0593 20.765C77.4655 19.4695 76.5794 18.5159 75.4009 17.9042C74.2224 17.2924 72.7695 16.9866 71.0422 16.9866H67.3178V34.6102ZM104.113 19.9283C104.005 18.8398 103.542 17.9942 102.723 17.3914C101.905 16.7887 100.794 16.4873 99.3904 16.4873C98.4368 16.4873 97.6316 16.6222 96.9749 16.8921C96.3182 17.153 95.8144 17.5174 95.4636 17.9852C95.1217 18.453 94.9508 18.9837 94.9508 19.5775C94.9328 20.0723 95.0362 20.5041 95.2611 20.8729C95.495 21.2418 95.8144 21.5611 96.2192 21.831C96.6241 22.0919 97.0919 22.3213 97.6226 22.5192C98.1534 22.7082 98.7202 22.8701 99.3229 23.005L101.806 23.5988C103.011 23.8687 104.118 24.2285 105.125 24.6783C106.133 25.1281 107.006 25.6814 107.743 26.3381C108.481 26.9949 109.052 27.7685 109.457 28.6592C109.871 29.5498 110.082 30.5709 110.091 31.7224C110.082 33.4137 109.651 34.88 108.796 36.1215C107.95 37.354 106.727 38.3121 105.125 38.9958C103.533 39.6705 101.612 40.0079 99.3634 40.0079C97.1324 40.0079 95.1892 39.666 93.5339 38.9823C91.8876 38.2986 90.6011 37.2865 89.6745 35.9461C88.7569 34.5967 88.2756 32.9279 88.2306 30.9397H93.8847C93.9477 31.8663 94.2131 32.64 94.6809 33.2607C95.1577 33.8725 95.7919 34.3358 96.5836 34.6506C97.3842 34.9565 98.2884 35.1094 99.2959 35.1094C100.286 35.1094 101.145 34.9655 101.873 34.6776C102.611 34.3897 103.182 33.9894 103.587 33.4766C103.992 32.9638 104.194 32.3746 104.194 31.7089C104.194 31.0881 104.01 30.5664 103.641 30.1435C103.281 29.7207 102.75 29.3609 102.049 29.064C101.356 28.7671 100.506 28.4972 99.4984 28.2543L96.4891 27.4986C94.1591 26.9319 92.3194 26.0458 90.9699 24.8403C89.6205 23.6348 88.9503 22.011 88.9593 19.9688C88.9503 18.2955 89.3956 16.8336 90.2952 15.5832C91.2039 14.3327 92.4498 13.3566 94.0332 12.6549C95.6165 11.9532 97.4157 11.6023 99.4309 11.6023C101.482 11.6023 103.272 11.9532 104.802 12.6549C106.34 13.3566 107.536 14.3327 108.391 15.5832C109.246 16.8336 109.687 18.282 109.714 19.9283H104.113ZM112.402 11.9802H118.947L125.249 23.8822H125.519L131.821 11.9802H138.365L128.285 29.8467V39.6165H122.483V29.8467L112.402 11.9802Z" fill="black"/>
</svg>
