<svg width="51" height="51" viewBox="0 0 51 51" fill="none" xmlns="http://www.w3.org/2000/svg">
<path d="M13.6372 47.1387C17.4496 49.1662 21.7221 50.1717 26.0386 50.0573C30.355 49.9428 34.5683 48.7124 38.2679 46.4857C41.9674 44.259 45.0272 41.1121 47.1491 37.3514C49.271 33.5908 50.3828 29.3446 50.3759 25.0267C50.3691 20.7087 49.2441 16.4661 47.1103 12.7121C44.9765 8.9582 41.9068 5.82093 38.2003 3.60592C34.4937 1.39092 30.2766 0.17372 25.9598 0.0728877C21.643 -0.0279443 17.3736 0.991033 13.5677 3.03056L25.376 25.0661L13.6372 47.1387Z" fill="#2400FF"/>
<line x1="17.6377" y1="45.178" x2="17.6377" y2="6.62161" stroke="#2400FF" strokeWidth="2"/>
<line x1="16.9014" y1="24.8998" x2="25.9326" y2="24.8998" stroke="#2400FF" strokeWidth="2"/>
</svg>
