<svg width="629" height="598" viewBox="0 0 629 598" fill="none" xmlns="http://www.w3.org/2000/svg">
<path d="M628.584 575.333C628.875 604.217 436.533 606.864 432.869 575.334C432.578 546.452 624.92 543.805 628.584 575.333Z" fill="#E6E6E6"/>
<path d="M478.097 475.059L463.802 482.437L472.899 510.722L487.192 511.951L494.99 495.965L478.097 475.059Z" fill="#9F616A"/>
<path d="M522.28 531.627V545.154L544.371 543.924L544.063 532.784L522.28 531.627Z" fill="#9F616A"/>
<path d="M472.899 312.732L480.695 404.964L505.386 540.235L544.371 535.316L531.376 428.328L536.574 329.949L472.899 312.732Z" fill="#2F2E41"/>
<path d="M576.858 243.867L483.294 245.097L472.898 312.733L536.574 341.017L552.167 395.126L472.898 475.059L504.086 511.951C504.086 511.951 548.269 455.383 580.757 423.41C613.244 391.436 597.65 294.286 597.65 294.286L576.858 243.867Z" fill="#2F2E41"/>
<path d="M520.98 69.2428C536.769 69.2428 549.569 57.1302 549.569 42.1884C549.569 27.2467 536.769 15.134 520.98 15.134C505.191 15.134 492.391 27.2467 492.391 42.1884C492.391 57.1302 505.191 69.2428 520.98 69.2428Z" fill="#FFB9C3"/>
<path d="M510.584 60.6346V87.689L530.076 117.203C530.076 117.203 559.965 96.2972 553.467 91.3783C546.97 86.4593 545.67 48.3372 545.67 48.3372L510.584 60.6346Z" fill="#FFB9C3"/>
<path d="M510.584 82.7701L491.091 104.905L498.889 258.623L559.964 257.393L570.36 123.352L557.366 88.9185L548.452 77.4417L532.675 99.986L510.584 82.7701Z" fill="#D0CDE1"/>
<path d="M479.395 162.703L465.101 214.353L479.395 266.002L456.004 295.516L435.212 202.055C435.212 202.055 450.807 125.811 452.106 117.203C453.405 108.594 456.004 107.365 456.004 107.365L466.4 108.594L479.395 162.703Z" fill="#0E078A"/>
<path d="M583.355 182.379L592.452 198.366L595.051 225.42L589.853 256.164L608.046 284.448L626.238 206.974L606.747 107.364H598.949L583.355 182.379Z" fill="#0E078A"/>
<path d="M472.898 473.829C472.898 473.829 454.705 478.748 448.208 479.978C441.71 481.208 452.106 504.573 452.106 504.573C452.106 504.573 458.604 536.546 459.903 542.695C461.203 548.844 470.299 569.75 481.995 572.209C493.69 574.668 485.893 529.168 485.893 529.168C485.893 529.168 491.091 514.411 491.091 509.492C491.091 504.573 483.294 507.032 483.294 507.032C462.502 504.573 472.898 473.829 472.898 473.829Z" fill="#05024B"/>
<path d="M515.782 568.52C517.082 575.898 514.483 575.898 535.275 578.358C556.067 580.817 550.869 564.831 550.869 564.831C549.999 557.294 548.256 549.871 545.671 542.695C541.772 532.857 520.98 545.155 520.98 545.155C520.98 545.155 514.483 561.141 515.782 568.52Z" fill="#05024B"/>
<path d="M545.704 49.1962L546.381 60.1328C546.381 60.1328 554.766 42.1886 556.066 23.7424C557.365 5.29623 535.274 1.60699 522.279 0.377246C509.284 -0.852494 487.192 7.75571 487.192 17.5937C487.192 27.4317 510.583 24.9722 519.68 22.5127C528.776 20.0532 532.675 40.9589 532.675 40.9589L537.873 42.1886L545.704 49.1962Z" fill="#2F2E41"/>
<path d="M502.914 91.4785L510.584 82.77L532.675 99.9859L510.584 114.743L502.914 91.4785Z" fill="#D0CDE1"/>
<path d="M557.367 88.9186L548.27 77.8511L532.676 99.986L552.169 113.514L557.367 88.9186Z" fill="#D0CDE1"/>
<path d="M475.498 179.92L480.696 226.65L470.3 254.935L463.802 281.989C463.802 281.989 463.802 307.814 489.792 309.043C515.782 310.273 537.874 231.569 537.874 231.569C537.874 231.569 541.772 248.786 544.371 258.624C546.97 268.462 591.153 307.814 591.153 307.814C591.153 307.814 601.549 306.584 610.646 286.908C619.742 267.232 592.453 248.786 592.453 248.786L584.656 222.961L587.255 190.988L605.448 107.365L551.518 80.9255L557.366 151.636L537.874 206.974L508.635 84.6148L498.889 91.3784L457.305 107.365L475.498 179.92Z" fill="#0A00BC"/>
<path d="M188.882 568.574C187.195 568.56 185.489 568.549 183.814 568.497L183.866 566.808C185.524 566.859 187.22 566.882 188.882 566.884C190.553 566.884 192.254 566.856 193.943 566.802L193.997 568.49C192.29 568.546 190.57 568.574 188.882 568.574ZM173.653 567.86C170.288 567.541 166.889 567.11 163.553 566.577L163.819 564.909C167.121 565.435 170.483 565.863 173.812 566.178L173.653 567.86ZM204.157 567.842L203.996 566.16C207.324 565.841 210.686 565.41 213.987 564.878L214.257 566.547C210.919 567.084 207.521 567.52 204.157 567.842ZM153.554 564.649C150.26 563.902 146.945 563.037 143.702 562.079L144.181 560.458C147.389 561.406 150.669 562.261 153.928 563L153.554 564.649ZM224.252 564.607L223.876 562.959C227.143 562.214 230.422 561.355 233.621 560.405L234.102 562.026C230.869 562.986 227.554 563.854 224.252 564.607ZM134.034 558.88C130.855 557.712 127.674 556.427 124.579 555.057L125.264 553.513C128.324 554.866 131.471 556.139 134.617 557.294L134.034 558.88ZM243.765 558.814L243.181 557.228C246.307 556.077 249.443 554.805 252.501 553.448L253.187 554.993C250.095 556.365 246.925 557.65 243.765 558.814ZM115.394 550.634C112.402 549.073 109.415 547.389 106.515 545.631L107.391 544.185C110.26 545.926 113.216 547.591 116.176 549.135L115.394 550.634ZM262.346 550.572L261.564 549.074C264.517 547.53 267.466 545.866 270.327 544.127L271.206 545.571C268.313 547.329 265.332 549.011 262.346 550.572ZM97.9762 540.071C95.2051 538.137 92.4587 536.086 89.8126 533.977L90.8666 532.655C93.4846 534.743 96.2021 536.771 98.9435 538.684L97.9762 540.071ZM279.73 540.01L278.761 538.626C281.502 536.71 284.216 534.682 286.827 532.596L287.882 533.917C285.243 536.024 282.5 538.074 279.73 540.01ZM82.0554 527.374C79.5504 525.1 77.0875 522.718 74.7365 520.294L75.9498 519.117C78.2761 521.515 80.7129 523.872 83.1919 526.123L82.0554 527.374ZM295.631 527.315L294.494 526.064C296.967 523.819 299.402 521.46 301.732 519.056L302.945 520.231C300.591 522.662 298.13 525.045 295.631 527.315ZM67.8844 512.764C65.691 510.193 63.5524 507.518 61.5274 504.815L62.8806 503.801C64.8842 506.477 67 509.123 69.1703 511.667L67.8844 512.764ZM309.795 512.694L308.51 511.598C310.679 509.052 312.796 506.402 314.799 503.724L316.152 504.735C314.128 507.443 311.989 510.121 309.795 512.694ZM55.6917 496.476C53.8425 493.645 52.063 490.721 50.4024 487.785L51.874 486.953C53.5165 489.857 55.2774 492.751 57.1072 495.552L55.6917 496.476ZM321.99 496.385L320.574 495.462C322.404 492.655 324.165 489.757 325.808 486.846L327.281 487.676C325.62 490.619 323.84 493.549 321.99 496.385ZM45.6821 478.775C44.2113 475.733 42.8218 472.607 41.5524 469.483L43.1181 468.847C44.3743 471.937 45.749 475.03 47.2041 478.039L45.6821 478.775ZM332.003 478.643L330.481 477.908C331.935 474.895 333.31 471.793 334.568 468.689L336.134 469.322C334.863 472.461 333.473 475.597 332.003 478.643ZM38.024 459.932C36.9547 456.721 35.9779 453.438 35.1204 450.171L36.7554 449.742C37.6035 452.973 38.57 456.222 39.6277 459.397L38.024 459.932ZM339.656 459.753L338.052 459.221C339.103 456.05 340.066 452.8 340.912 449.562L342.548 449.99C341.692 453.263 340.719 456.547 339.656 459.753ZM32.8527 440.247C32.2068 436.931 31.6605 433.55 31.2284 430.197L32.9047 429.98C33.3322 433.298 33.8728 436.643 34.5117 439.923L32.8527 440.247ZM344.804 440.061L343.145 439.741C343.779 436.461 344.316 433.115 344.74 429.795L346.417 430.009C345.988 433.365 345.445 436.747 344.804 440.061ZM30.2512 420.064C30.0345 416.695 29.9227 413.271 29.9189 409.887L31.6093 409.885C31.613 413.234 31.7236 416.622 31.9382 419.955L30.2512 420.064ZM347.382 419.875L345.695 419.768C345.906 416.438 346.012 413.05 346.012 409.7L346.011 409.33H347.702L347.703 409.695C347.703 413.086 347.595 416.509 347.382 419.875ZM31.9147 399.817L30.2276 399.713C30.4372 396.338 30.7579 392.928 31.1809 389.577L32.8581 389.789C32.4392 393.104 32.1218 396.478 31.9147 399.817ZM345.672 399.263C345.453 395.922 345.123 392.549 344.693 389.238L346.369 389.02C346.804 392.367 347.137 395.775 347.359 399.152L345.672 399.263ZM34.4411 379.842L32.7813 379.523C33.4189 376.206 34.1742 372.865 35.0251 369.593L36.6609 370.018C35.8191 373.255 35.0721 376.56 34.4411 379.842ZM343.073 379.297C342.429 376.014 341.67 372.711 340.818 369.48L342.453 369.05C343.314 372.315 344.081 375.653 344.732 378.972L343.073 379.297ZM39.5109 360.356L37.9056 359.826C38.9666 356.615 40.1477 353.393 41.4166 350.251L42.984 350.884C41.7286 353.993 40.5603 357.179 39.5109 360.356ZM337.936 359.829C336.875 356.657 335.697 353.479 334.435 350.384L336 349.746C337.276 352.875 338.467 356.087 339.539 359.293L337.936 359.829ZM47.0613 341.658L45.5377 340.925C47.0039 337.877 48.5895 334.836 50.2497 331.887L51.7229 332.716C50.0801 335.634 48.5119 338.642 47.0613 341.658ZM330.339 341.197C328.883 338.196 327.309 335.198 325.658 332.288L327.129 331.455C328.797 334.396 330.388 337.426 331.859 340.46L330.339 341.197ZM56.9475 324.093L55.5303 323.172C57.3738 320.338 59.3344 317.526 61.3574 314.814L62.7126 315.824C60.7111 318.508 58.7711 321.29 56.9475 324.093ZM320.415 323.696C318.586 320.902 316.64 318.129 314.631 315.453L315.983 314.439C318.014 317.144 319.98 319.947 321.829 322.77L320.415 323.696ZM68.9928 307.943L67.7052 306.848C69.8945 304.273 72.196 301.734 74.5458 299.304L75.7616 300.478C73.4366 302.883 71.1594 305.395 68.9928 307.943ZM308.332 307.594C306.159 305.054 303.874 302.549 301.543 300.151L302.755 298.974C305.111 301.397 307.42 303.928 309.616 306.496L308.332 307.594ZM82.9905 293.46L81.8524 292.211C84.3536 289.933 86.9585 287.708 89.5938 285.6L90.6503 286.919C88.0426 289.006 85.4654 291.207 82.9905 293.46ZM294.293 293.154C291.814 290.91 289.23 288.716 286.61 286.632L287.663 285.309C290.31 287.416 292.923 289.633 295.427 291.901L294.293 293.154ZM98.7096 280.88L97.7398 279.497C100.506 277.558 103.371 275.685 106.257 273.927L107.137 275.37C104.282 277.109 101.446 278.963 98.7096 280.88ZM278.527 280.611C275.775 278.696 272.931 276.849 270.072 275.119L270.947 273.673C273.836 275.421 276.712 277.289 279.492 279.224L278.527 280.611ZM115.895 270.412L115.11 268.915C118.099 267.348 121.179 265.857 124.264 264.483L124.952 266.027C121.899 267.386 118.852 268.861 115.895 270.412ZM261.281 270.18C258.313 268.635 255.254 267.167 252.189 265.815L252.872 264.268C255.969 265.635 259.062 267.119 262.062 268.681L261.281 270.18ZM134.268 262.236L133.681 260.65C136.851 259.478 140.101 258.394 143.341 257.428L143.824 259.048C140.618 260.003 137.403 261.076 134.268 262.236ZM242.832 262.044C239.69 260.895 236.471 259.833 233.265 258.89L233.742 257.268C236.983 258.222 240.237 259.295 243.413 260.457L242.832 262.044ZM153.565 256.483L153.188 254.836C156.477 254.083 159.839 253.426 163.181 252.883L163.452 254.552C160.145 255.089 156.819 255.738 153.565 256.483ZM223.514 256.36C220.254 255.626 216.926 254.988 213.62 254.464L213.885 252.794C217.226 253.324 220.591 253.969 223.885 254.711L223.514 256.36ZM173.442 253.258L173.279 251.577C176.634 251.251 180.053 251.029 183.438 250.916L183.494 252.605C180.144 252.717 176.762 252.937 173.442 253.258ZM203.625 253.206C200.3 252.895 196.917 252.687 193.571 252.588L193.622 250.899C197.003 250.999 200.422 251.209 203.783 251.523L203.625 253.206Z" fill="#D0CDE1"/>
<path d="M182.895 294.771C204.833 294.771 222.618 276.988 222.618 255.053C222.618 233.117 204.833 215.334 182.895 215.334C160.956 215.334 143.172 233.117 143.172 255.053C143.172 276.988 160.956 294.771 182.895 294.771Z" fill="#0D00A6"/>
<path d="M336.715 402.94C358.654 402.94 376.438 385.157 376.438 363.221C376.438 341.286 358.654 323.503 336.715 323.503C314.777 323.503 296.992 341.286 296.992 363.221C296.992 385.157 314.777 402.94 336.715 402.94Z" fill="#0D00A6"/>
<path d="M288.541 568.574C310.48 568.574 328.264 550.791 328.264 528.855C328.264 506.919 310.48 489.137 288.541 489.137C266.603 489.137 248.818 506.919 248.818 528.855C248.818 550.791 266.603 568.574 288.541 568.574Z" fill="#0D00A6"/>
<path d="M97.5326 575.334C119.471 575.334 137.256 557.552 137.256 535.616C137.256 513.68 119.471 495.898 97.5326 495.898C75.5942 495.898 57.8096 513.68 57.8096 535.616C57.8096 557.552 75.5942 575.334 97.5326 575.334Z" fill="#0D00A6"/>
<path d="M40.0609 402.94C61.9993 402.94 79.7839 385.157 79.7839 363.221C79.7839 341.286 61.9993 323.503 40.0609 323.503C18.1225 323.503 0.337891 341.286 0.337891 363.221C0.337891 385.157 18.1225 402.94 40.0609 402.94Z" fill="#0D00A6"/>
<path d="M199.917 251.886H186.061C184.802 251.886 183.593 251.385 182.702 250.495C181.812 249.604 181.311 248.396 181.311 247.136V233.282C181.311 233.23 181.301 233.179 181.281 233.131C181.261 233.083 181.232 233.039 181.195 233.002C181.158 232.965 181.115 232.936 181.067 232.916C181.019 232.896 180.967 232.886 180.915 232.886H171.81C170.13 232.886 168.519 233.553 167.331 234.741C166.143 235.929 165.476 237.54 165.476 239.219V270.886C165.476 272.565 166.143 274.176 167.331 275.364C168.519 276.552 170.13 277.219 171.81 277.219H193.979C195.659 277.219 197.27 276.552 198.458 275.364C199.646 274.176 200.313 272.565 200.313 270.886V252.282C200.313 252.23 200.303 252.178 200.283 252.13C200.263 252.082 200.234 252.039 200.197 252.002C200.16 251.965 200.117 251.936 200.069 251.916C200.021 251.896 199.969 251.886 199.917 251.886ZM190.812 267.719H174.977C174.557 267.719 174.154 267.552 173.857 267.255C173.56 266.958 173.394 266.556 173.394 266.136C173.394 265.716 173.56 265.313 173.857 265.016C174.154 264.719 174.557 264.552 174.977 264.552H190.812C191.232 264.552 191.635 264.719 191.932 265.016C192.229 265.313 192.395 265.716 192.395 266.136C192.395 266.556 192.229 266.958 191.932 267.255C191.635 267.552 191.232 267.719 190.812 267.719ZM190.812 259.802H174.977C174.557 259.802 174.154 259.636 173.857 259.339C173.56 259.042 173.394 258.639 173.394 258.219C173.394 257.799 173.56 257.396 173.857 257.1C174.154 256.803 174.557 256.636 174.977 256.636H190.812C191.232 256.636 191.635 256.803 191.932 257.1C192.229 257.396 192.395 257.799 192.395 258.219C192.395 258.639 192.229 259.042 191.932 259.339C191.635 259.636 191.232 259.802 190.812 259.802Z" fill="white"/>
<path d="M199.048 248.382L184.815 234.151C184.787 234.123 184.752 234.105 184.714 234.097C184.676 234.089 184.636 234.093 184.6 234.108C184.564 234.123 184.533 234.148 184.511 234.181C184.489 234.213 184.478 234.251 184.478 234.29V247.136C184.478 247.556 184.644 247.959 184.941 248.255C185.238 248.552 185.641 248.719 186.061 248.719H198.908C198.947 248.719 198.985 248.707 199.018 248.686C199.05 248.664 199.075 248.633 199.09 248.597C199.105 248.561 199.109 248.521 199.101 248.483C199.094 248.445 199.075 248.409 199.048 248.382Z" fill="white"/>
<path d="M294.287 521.031C293.8 521.031 293.328 521.2 292.951 521.51C292.575 521.819 292.318 522.249 292.223 522.726C292.128 523.204 292.202 523.7 292.432 524.129C292.661 524.558 293.033 524.895 293.483 525.081C293.933 525.267 294.434 525.291 294.9 525.15C295.366 525.008 295.768 524.71 296.039 524.305C296.309 523.9 296.431 523.413 296.383 522.929C296.335 522.444 296.12 521.991 295.776 521.647C295.58 521.452 295.348 521.297 295.092 521.191C294.837 521.085 294.563 521.031 294.287 521.031Z" fill="white"/>
<path d="M306.006 512.614V512.607C305.94 512.314 305.793 512.046 305.582 511.833C305.371 511.62 305.105 511.47 304.813 511.4C302.463 510.827 298.765 511.438 294.667 513.078C290.727 514.61 287.122 516.892 284.053 519.799C283.214 520.633 282.435 521.524 281.722 522.467C280.145 522.358 278.565 522.612 277.102 523.209C272.548 525.213 271.247 530.342 270.901 532.448C270.851 532.747 270.871 533.053 270.958 533.344C271.046 533.634 271.2 533.9 271.407 534.122C271.615 534.343 271.871 534.513 272.155 534.62C272.439 534.726 272.744 534.765 273.046 534.735H273.056L278.129 534.181C278.135 534.246 278.143 534.305 278.148 534.359C278.213 534.977 278.489 535.554 278.929 535.993L281.405 538.47C281.843 538.911 282.42 539.187 283.038 539.252L283.208 539.27L282.656 544.336V544.347C282.629 544.604 282.653 544.864 282.727 545.113C282.801 545.361 282.923 545.592 283.087 545.793C283.25 545.994 283.451 546.161 283.679 546.284C283.907 546.407 284.157 546.484 284.414 546.511C284.475 546.517 284.536 546.52 284.597 546.521C284.707 546.521 284.816 546.512 284.924 546.494C287.042 546.153 292.169 544.869 294.167 540.291C294.76 538.833 295.015 537.26 294.913 535.69C295.86 534.978 296.755 534.199 297.591 533.359C300.496 530.319 302.781 526.743 304.319 522.829C305.951 518.779 306.566 515.054 306.006 512.614ZM297.562 526.406C296.914 527.054 296.089 527.496 295.189 527.675C294.29 527.855 293.358 527.763 292.511 527.413C291.664 527.063 290.94 526.469 290.43 525.707C289.92 524.945 289.648 524.049 289.647 523.132C289.647 522.216 289.918 521.319 290.427 520.557C290.936 519.795 291.66 519.2 292.507 518.849C293.353 518.498 294.285 518.405 295.185 518.584C296.084 518.762 296.91 519.203 297.559 519.851L297.562 519.854C298.431 520.71 298.924 521.876 298.934 523.095C298.943 524.315 298.467 525.488 297.611 526.356L297.562 526.406Z" fill="white"/>
<path d="M281.12 539.142C280.815 539.104 280.507 539.179 280.253 539.353C279.749 539.697 279.242 540.038 278.731 540.37C278.509 540.513 278.246 540.577 277.983 540.552C277.721 540.527 277.474 540.415 277.283 540.233C277.092 540.051 276.967 539.81 276.93 539.549C276.892 539.288 276.943 539.021 277.075 538.793L278.033 537.137C278.17 536.936 278.246 536.701 278.253 536.458C278.259 536.215 278.196 535.976 278.069 535.769C277.943 535.561 277.76 535.395 277.541 535.289C277.323 535.183 277.078 535.143 276.837 535.172C275.774 535.307 274.785 535.791 274.027 536.549C273.738 536.839 272.861 537.717 272.388 541.065C272.254 542.027 272.169 542.995 272.134 543.965C272.13 544.131 272.158 544.295 272.218 544.45C272.277 544.605 272.367 544.746 272.481 544.866C272.595 544.986 272.732 545.083 272.883 545.15C273.035 545.218 273.198 545.254 273.363 545.259C273.374 545.259 273.385 545.259 273.396 545.259H273.428C274.399 545.225 275.368 545.14 276.33 545.007C279.68 544.533 280.559 543.655 280.847 543.366C281.609 542.608 282.092 541.615 282.219 540.548C282.26 540.216 282.167 539.881 281.961 539.618C281.755 539.354 281.452 539.183 281.12 539.142Z" fill="white"/>
<path d="M83.8613 557.199H80.9833C80.4108 557.199 79.8617 556.971 79.4569 556.567C79.0521 556.162 78.8247 555.613 78.8247 555.04V542.091C78.8247 541.518 79.0521 540.969 79.4569 540.565C79.8617 540.16 80.4108 539.932 80.9833 539.932H83.8613C84.4338 539.932 84.9829 540.16 85.3877 540.565C85.7925 540.969 86.0199 541.518 86.0199 542.091V555.04C86.0199 555.613 85.7925 556.162 85.3877 556.567C84.9829 556.971 84.4338 557.199 83.8613 557.199Z" fill="white"/>
<path d="M104.008 557.199H101.13C100.558 557.199 100.009 556.971 99.6039 556.567C99.1991 556.162 98.9717 555.613 98.9717 555.041V533.458C98.9717 532.885 99.1991 532.336 99.6039 531.931C100.009 531.527 100.558 531.299 101.13 531.299H104.008C104.581 531.299 105.13 531.527 105.535 531.931C105.939 532.336 106.167 532.885 106.167 533.458V555.041C106.167 555.613 105.939 556.162 105.535 556.567C105.13 556.971 104.581 557.199 104.008 557.199Z" fill="white"/>
<path d="M114.081 557.199H111.202C110.63 557.199 110.081 556.972 109.676 556.567C109.271 556.162 109.044 555.613 109.044 555.041V523.386C109.044 522.813 109.271 522.264 109.676 521.859C110.081 521.455 110.63 521.227 111.202 521.227H114.081C114.653 521.227 115.202 521.455 115.607 521.859C116.012 522.264 116.239 522.813 116.239 523.386V555.041C116.239 555.613 116.012 556.162 115.607 556.567C115.202 556.972 114.653 557.199 114.081 557.199Z" fill="white"/>
<path d="M93.9345 557.199H91.0565C90.484 557.199 89.935 556.972 89.5302 556.567C89.1254 556.162 88.8979 555.613 88.8979 555.041V516.191C88.8979 515.619 89.1254 515.07 89.5302 514.665C89.935 514.26 90.484 514.033 91.0565 514.033H93.9346C94.5071 514.033 95.0561 514.26 95.4609 514.665C95.8657 515.07 96.0931 515.619 96.0931 516.191V555.041C96.0931 555.324 96.0373 555.605 95.9288 555.867C95.8203 556.128 95.6613 556.366 95.4609 556.567C95.2604 556.767 95.0225 556.926 94.7606 557.035C94.4987 557.143 94.218 557.199 93.9345 557.199Z" fill="white"/>
<path d="M338.619 362.181L336.562 360.124C336.091 359.653 335.453 359.388 334.787 359.386C334.121 359.384 333.481 359.646 333.008 360.115L318.712 373.307C318.187 373.771 317.866 374.424 317.818 375.123C317.803 375.47 317.859 375.816 317.984 376.141C318.109 376.465 318.299 376.76 318.543 377.008L321.614 380.113L321.62 380.118C322.095 380.591 322.737 380.858 323.407 380.86H323.5C323.847 380.84 324.187 380.753 324.5 380.602C324.813 380.451 325.093 380.24 325.325 379.98L338.61 365.751C339.085 365.281 339.353 364.641 339.356 363.973C339.359 363.305 339.096 362.663 338.625 362.188L338.619 362.181Z" fill="white"/>
<path d="M355.145 358.025L355.12 358L352.421 355.329C352.263 355.172 352.075 355.047 351.869 354.962C351.662 354.878 351.441 354.835 351.218 354.836C350.856 354.837 350.504 354.951 350.211 355.162C350.211 355.128 350.215 355.095 350.218 355.066C350.327 354.376 350.181 353.671 349.808 353.08C349.214 352.279 348.561 351.523 347.855 350.817L347.849 350.811C345.876 348.918 343.557 347.423 341.02 346.406C339.693 345.862 338.273 345.582 336.839 345.583C334.983 345.566 333.18 346.198 331.74 347.369C331.33 347.76 330.957 348.188 330.623 348.646C330.464 348.866 330.38 349.131 330.384 349.402C330.388 349.673 330.479 349.936 330.644 350.152C330.809 350.367 331.039 350.523 331.3 350.597C331.561 350.671 331.839 350.659 332.092 350.563C332.313 350.48 332.539 350.411 332.768 350.356C333.245 350.255 333.735 350.224 334.221 350.265C335.229 350.37 336.195 350.725 337.032 351.296C337.501 351.691 337.874 352.188 338.123 352.748C338.372 353.309 338.491 353.918 338.47 354.531C338.12 355.527 337.585 356.448 336.894 357.246C336.71 357.489 336.62 357.791 336.641 358.095C336.662 358.399 336.793 358.685 337.009 358.9L339.719 361.61C339.946 361.838 340.253 361.97 340.575 361.979C340.897 361.988 341.211 361.873 341.451 361.658C342.217 360.974 343.384 359.943 343.792 359.69C344.141 359.457 344.536 359.301 344.95 359.233C345.259 359.203 345.569 359.268 345.839 359.421C345.841 359.434 345.839 359.448 345.835 359.461C345.831 359.473 345.824 359.485 345.815 359.495L345.671 359.632L345.648 359.654C345.329 359.971 345.15 360.402 345.149 360.851C345.148 361.3 345.326 361.732 345.643 362.05L345.652 362.058L348.35 364.729C348.508 364.886 348.696 365.011 348.902 365.095C349.109 365.18 349.33 365.222 349.553 365.221C350.001 365.221 350.432 365.046 350.752 364.733L355.122 360.416C355.137 360.401 355.152 360.385 355.167 360.369C355.46 360.048 355.62 359.628 355.616 359.193C355.612 358.758 355.444 358.34 355.145 358.025Z" fill="white"/>
<path d="M46.3677 360.857C46.0559 360.857 45.751 360.764 45.4917 360.591C45.2325 360.418 45.0304 360.172 44.911 359.884C44.7917 359.595 44.7605 359.279 44.8213 358.973C44.8822 358.667 45.0323 358.386 45.2528 358.165L48.868 354.551L45.2528 350.936C44.9571 350.64 44.791 350.239 44.791 349.821C44.791 349.403 44.9571 349.002 45.2528 348.706C45.5485 348.41 45.9495 348.244 46.3677 348.244C46.7859 348.244 47.1869 348.41 47.4826 348.706L52.2128 353.436C52.3593 353.582 52.4754 353.756 52.5547 353.947C52.6339 354.139 52.6747 354.344 52.6747 354.551C52.6747 354.758 52.6339 354.963 52.5547 355.154C52.4754 355.345 52.3593 355.519 52.2128 355.665L47.4826 360.395C47.3364 360.542 47.1626 360.658 46.9713 360.737C46.7799 360.816 46.5748 360.857 46.3677 360.857Z" fill="white"/>
<path d="M21.1397 365.586C20.9327 365.586 20.7276 365.546 20.5363 365.466C20.345 365.387 20.1712 365.271 20.0248 365.125C19.8784 364.978 19.7622 364.804 19.683 364.613C19.6038 364.422 19.563 364.217 19.563 364.01V362.433C19.5754 359.929 20.5754 357.531 22.3459 355.76C24.1164 353.989 26.5143 352.987 29.0188 352.974H49.5211C49.9393 352.974 50.3403 353.14 50.636 353.436C50.9317 353.731 51.0979 354.132 51.0979 354.55C51.0979 354.969 50.9317 355.37 50.636 355.665C50.3403 355.961 49.9393 356.127 49.5211 356.127H29.0235C27.353 356.137 25.7538 356.805 24.573 357.987C23.3922 359.168 22.7251 360.768 22.7165 362.438V364.01C22.7165 364.217 22.6757 364.422 22.5965 364.613C22.5172 364.804 22.4011 364.978 22.2547 365.125C22.1083 365.271 21.9344 365.387 21.7431 365.466C21.5518 365.546 21.3468 365.586 21.1397 365.586Z" fill="white"/>
<path d="M33.7538 378.199C33.5467 378.199 33.3416 378.158 33.1502 378.079C32.9589 378 32.7851 377.884 32.6389 377.737L27.9086 373.007C27.7622 372.861 27.6461 372.687 27.5668 372.496C27.4876 372.305 27.4468 372.1 27.4468 371.893C27.4468 371.686 27.4876 371.481 27.5668 371.289C27.6461 371.098 27.7622 370.924 27.9086 370.778L32.6389 366.048C32.9347 365.753 33.3356 365.587 33.7535 365.587C34.1714 365.588 34.5721 365.754 34.8677 366.049C35.1632 366.345 35.3293 366.745 35.3294 367.163C35.3296 367.581 35.1639 367.982 34.8687 368.278L31.2534 371.893L34.8687 375.507C35.0892 375.728 35.2393 376.009 35.3002 376.315C35.361 376.62 35.3298 376.937 35.2104 377.226C35.0911 377.514 34.889 377.76 34.6297 377.933C34.3705 378.106 34.0656 378.199 33.7538 378.199Z" fill="white"/>
<path d="M30.6007 373.469C30.1825 373.469 29.7814 373.303 29.4857 373.007C29.19 372.712 29.0239 372.311 29.0239 371.893C29.0239 371.474 29.19 371.073 29.4857 370.778C29.7814 370.482 30.1825 370.316 30.6007 370.316H51.0983C52.7687 370.306 54.3679 369.638 55.5487 368.456C56.7295 367.275 57.3966 365.675 57.4052 364.005V362.433C57.4052 362.015 57.5713 361.614 57.867 361.318C58.1627 361.023 58.5638 360.857 58.982 360.857C59.4002 360.857 59.8012 361.023 60.0969 361.318C60.3926 361.614 60.5587 362.015 60.5587 362.433V364.01C60.5464 366.514 59.5463 368.912 57.7758 370.683C56.0053 372.454 53.6074 373.456 51.1029 373.469L30.6007 373.469Z" fill="white"/>
</svg>
